<svg width="629" height="80" viewBox="0 0 629 80" fill="none" xmlns="http://www.w3.org/2000/svg">
<path d="M2.38419e-07 49V44.6L48.6 18.5V26L10.3 46.8L48.6 67.5V75L2.38419e-07 49ZM98.1422 59.9H70.9422L66.2422 75H56.4422L80.2422 5H88.8422L112.642 75H102.842L98.1422 59.9ZM95.7422 52.4L84.5422 16.5L73.3422 52.4H95.7422ZM120.313 37.6C120.313 31.2667 120.179 27.0667 119.913 25H127.813C128.079 27.2 128.213 30.1667 128.213 33.9H128.513C129.979 30.8333 132.213 28.4333 135.213 26.7C138.279 24.9 141.679 24 145.413 24C151.279 24 155.679 25.9 158.613 29.7C161.546 33.5 163.013 39.1667 163.013 46.7V75H154.513V46.6C154.513 41.2667 153.613 37.3 151.813 34.7C150.013 32.1 147.279 30.8 143.613 30.8C140.813 30.8 138.279 31.5333 136.013 33C133.746 34.4 131.979 36.4 130.713 39C129.446 41.5333 128.813 44.4 128.813 47.6V75H120.313V37.6ZM189.995 76C185.062 76 181.029 74.5667 177.895 71.7C174.762 68.8333 173.195 65.1333 173.195 60.6C173.195 55.6 175.062 51.7333 178.795 49C182.595 46.2667 187.962 44.9 194.895 44.9H205.195V42.3C205.195 38.5667 204.195 35.7333 202.195 33.8C200.262 31.8 197.429 30.8 193.695 30.8C190.695 30.8 187.929 31.4333 185.395 32.7C182.929 33.9 180.862 35.6667 179.195 38L174.895 32.8C177.162 29.9333 179.929 27.7667 183.195 26.3C186.462 24.7667 190.095 24 194.095 24C200.362 24 205.195 25.5333 208.595 28.6C211.995 31.6667 213.695 36.0667 213.695 41.8V65.3C213.695 67.9 214.095 71.1333 214.895 75H207.495C206.895 73.4667 206.462 71.1333 206.195 68H205.995C204.129 70.6 201.829 72.6 199.095 74C196.362 75.3333 193.329 76 189.995 76ZM191.295 69.3C193.829 69.3 196.162 68.8333 198.295 67.9C200.429 66.9 202.095 65.5667 203.295 63.9C204.562 62.2333 205.195 60.4 205.195 58.4V51H194.595C190.395 51 187.162 51.8333 184.895 53.5C182.629 55.1667 181.495 57.5333 181.495 60.6C181.495 63.2667 182.362 65.4 184.095 67C185.895 68.5333 188.295 69.3 191.295 69.3ZM247.363 76C239.963 76 234.196 73.7333 230.063 69.2C225.996 64.6 223.963 58.2 223.963 50C223.963 41.8 225.996 35.4333 230.063 30.9C234.196 26.3 239.963 24 247.363 24C251.563 24 255.263 24.8333 258.463 26.5C261.729 28.1 264.296 30.4333 266.163 33.5L261.063 38.1C259.596 35.8333 257.663 34.0667 255.263 32.8C252.929 31.4667 250.396 30.8 247.663 30.8C242.929 30.8 239.196 32.5 236.463 35.9C233.796 39.2333 232.463 43.9333 232.463 50C232.463 56 233.796 60.7 236.463 64.1C239.196 67.5 242.929 69.2 247.663 69.2C250.396 69.2 252.929 68.5667 255.263 67.3C257.663 65.9667 259.596 64.1667 261.063 61.9L266.163 66.5C264.296 69.5667 261.729 71.9333 258.463 73.6C255.263 75.2 251.563 76 247.363 76ZM295.628 76C290.695 76 286.395 74.9667 282.728 72.9C279.128 70.7667 276.328 67.7333 274.328 63.8C272.395 59.8667 271.428 55.2667 271.428 50C271.428 44.7333 272.395 40.1333 274.328 36.2C276.328 32.2667 279.128 29.2667 282.728 27.2C286.395 25.0667 290.695 24 295.628 24C303.095 24 308.995 26.3333 313.328 31C317.728 35.6667 319.928 42 319.928 50C319.928 58 317.728 64.3333 313.328 69C308.995 73.6667 303.095 76 295.628 76ZM295.628 69.5C300.561 69.5 304.428 67.7667 307.228 64.3C310.028 60.8333 311.428 56.0667 311.428 50C311.428 43.9333 310.028 39.1667 307.228 35.7C304.428 32.2333 300.561 30.5 295.628 30.5C290.761 30.5 286.928 32.2333 284.128 35.7C281.328 39.1667 279.928 43.9333 279.928 50C279.928 56.0667 281.328 60.8333 284.128 64.3C286.928 67.7667 290.761 69.5 295.628 69.5ZM329.492 37.6C329.492 31.2667 329.359 27.0667 329.092 25H336.992C337.259 27.2 337.392 30.1667 337.392 33.9H337.692C339.159 30.8333 341.392 28.4333 344.392 26.7C347.459 24.9 350.859 24 354.592 24C360.459 24 364.859 25.9 367.792 29.7C370.726 33.5 372.192 39.1667 372.192 46.7V75H363.692V46.6C363.692 41.2667 362.792 37.3 360.992 34.7C359.192 32.1 356.459 30.8 352.792 30.8C349.992 30.8 347.459 31.5333 345.192 33C342.926 34.4 341.159 36.4 339.892 39C338.626 41.5333 337.992 44.4 337.992 47.6V75H329.492V37.6ZM402.775 76C396.308 76 391.175 73.6 387.375 68.8C383.642 64 381.775 57.4333 381.775 49.1C381.775 44.0333 382.642 39.6333 384.375 35.9C386.108 32.1 388.575 29.1667 391.775 27.1C394.975 25.0333 398.708 24 402.975 24C409.108 24 414.042 26.5667 417.775 31.7H417.975V0.799996H426.375V62.4C426.375 68.6 426.475 72.8 426.675 75H418.875C418.742 73.4 418.675 70.7667 418.675 67.1H418.475C416.942 69.7667 414.742 71.9333 411.875 73.6C409.008 75.2 405.975 76 402.775 76ZM403.975 69.2C408.242 69.2 411.608 67.9333 414.075 65.4C416.608 62.8 417.875 59.3333 417.875 55V45.9C417.875 41.2333 416.608 37.5 414.075 34.7C411.542 31.9 408.175 30.5 403.975 30.5C399.708 30.5 396.342 32.1667 393.875 35.5C391.475 38.7667 390.275 43.3667 390.275 49.3C390.275 55.5 391.475 60.3667 393.875 63.9C396.342 67.4333 399.708 69.2 403.975 69.2ZM453.374 76C448.441 76 444.408 74.5667 441.274 71.7C438.141 68.8333 436.574 65.1333 436.574 60.6C436.574 55.6 438.441 51.7333 442.174 49C445.974 46.2667 451.341 44.9 458.274 44.9H468.574V42.3C468.574 38.5667 467.574 35.7333 465.574 33.8C463.641 31.8 460.808 30.8 457.074 30.8C454.074 30.8 451.308 31.4333 448.774 32.7C446.308 33.9 444.241 35.6667 442.574 38L438.274 32.8C440.541 29.9333 443.308 27.7667 446.574 26.3C449.841 24.7667 453.474 24 457.474 24C463.741 24 468.574 25.5333 471.974 28.6C475.374 31.6667 477.074 36.0667 477.074 41.8V65.3C477.074 67.9 477.474 71.1333 478.274 75H470.874C470.274 73.4667 469.841 71.1333 469.574 68H469.374C467.508 70.6 465.208 72.6 462.474 74C459.741 75.3333 456.708 76 453.374 76ZM454.674 69.3C457.208 69.3 459.541 68.8333 461.674 67.9C463.808 66.9 465.474 65.5667 466.674 63.9C467.941 62.2333 468.574 60.4 468.574 58.4V51H457.974C453.774 51 450.541 51.8333 448.274 53.5C446.008 55.1667 444.874 57.5333 444.874 60.6C444.874 63.2667 445.741 65.4 447.474 67C449.274 68.5333 451.674 69.3 454.674 69.3ZM568.174 2.5H576.474L538.474 79.3H530.174L568.174 2.5ZM580.078 67.5L618.378 46.8L580.078 26V18.5L628.678 44.6V49L580.078 75V67.5Z" fill="#66FCF1"/>
</svg>
