<svg width="841" height="80" viewBox="0 0 841 80" fill="none" xmlns="http://www.w3.org/2000/svg">
<path d="M2.38419e-07 49V44.6L48.6 18.5V26L10.3 46.8L48.6 67.5V75L2.38419e-07 49ZM98.1422 59.9H70.9422L66.2422 75H56.4422L80.2422 5H88.8422L112.642 75H102.842L98.1422 59.9ZM95.7422 52.4L84.5422 16.5L73.3422 52.4H95.7422ZM120.313 37.6C120.313 31.2667 120.179 27.0667 119.913 25H127.813C128.079 27.2 128.213 30.1667 128.213 33.9H128.513C129.979 30.8333 132.213 28.4333 135.213 26.7C138.279 24.9 141.679 24 145.413 24C151.279 24 155.679 25.9 158.613 29.7C161.546 33.5 163.013 39.1667 163.013 46.7V75H154.513V46.6C154.513 41.2667 153.613 37.3 151.813 34.7C150.013 32.1 147.279 30.8 143.613 30.8C140.813 30.8 138.279 31.5333 136.013 33C133.746 34.4 131.979 36.4 130.713 39C129.446 41.5333 128.813 44.4 128.813 47.6V75H120.313V37.6ZM193.595 76C187.129 76 181.995 73.6 178.195 68.8C174.462 64 172.595 57.4333 172.595 49.1C172.595 44.0333 173.462 39.6333 175.195 35.9C176.929 32.1 179.395 29.1667 182.595 27.1C185.795 25.0333 189.529 24 193.795 24C199.929 24 204.862 26.5667 208.595 31.7H208.795V0.799996H217.195V62.4C217.195 68.6 217.295 72.8 217.495 75H209.695C209.562 73.4 209.495 70.7667 209.495 67.1H209.295C207.762 69.7667 205.562 71.9333 202.695 73.6C199.829 75.2 196.795 76 193.595 76ZM194.795 69.2C199.062 69.2 202.429 67.9333 204.895 65.4C207.429 62.8 208.695 59.3333 208.695 55V45.9C208.695 41.2333 207.429 37.5 204.895 34.7C202.362 31.9 198.995 30.5 194.795 30.5C190.529 30.5 187.162 32.1667 184.695 35.5C182.295 38.7667 181.095 43.3667 181.095 49.3C181.095 55.5 182.295 60.3667 184.695 63.9C187.162 67.4333 190.529 69.2 194.795 69.2ZM230.095 37.2C230.095 31.5333 229.995 27.4667 229.795 25H237.695C237.961 27.6667 238.095 30.6 238.095 33.8V34.8H238.395C239.661 31.3333 241.695 28.6667 244.495 26.8C247.295 24.9333 250.595 24 254.395 24C255.461 24 256.428 24.1 257.295 24.3V31.3C256.428 31.1 255.261 31 253.795 31C250.995 31 248.428 31.8667 246.095 33.6C243.761 35.2667 241.928 37.5667 240.595 40.5C239.261 43.4333 238.595 46.6333 238.595 50.1V75H230.095V37.2ZM285.179 76C280.246 76 275.946 74.9667 272.279 72.9C268.679 70.7667 265.879 67.7333 263.879 63.8C261.946 59.8667 260.979 55.2667 260.979 50C260.979 44.7333 261.946 40.1333 263.879 36.2C265.879 32.2667 268.679 29.2667 272.279 27.2C275.946 25.0667 280.246 24 285.179 24C292.646 24 298.546 26.3333 302.879 31C307.279 35.6667 309.479 42 309.479 50C309.479 58 307.279 64.3333 302.879 69C298.546 73.6667 292.646 76 285.179 76ZM285.179 69.5C290.112 69.5 293.979 67.7667 296.779 64.3C299.579 60.8333 300.979 56.0667 300.979 50C300.979 43.9333 299.579 39.1667 296.779 35.7C293.979 32.2333 290.112 30.5 285.179 30.5C280.312 30.5 276.479 32.2333 273.679 35.7C270.879 39.1667 269.479 43.9333 269.479 50C269.479 56.0667 270.879 60.8333 273.679 64.3C276.479 67.7667 280.312 69.5 285.179 69.5ZM325.243 16.3C323.376 16.3 321.91 15.8 320.843 14.8C319.776 13.8 319.243 12.4333 319.243 10.7C319.243 8.96666 319.776 7.6 320.843 6.6C321.91 5.53333 323.376 5 325.243 5C327.11 5 328.576 5.53333 329.643 6.6C330.776 7.6 331.343 8.96666 331.343 10.7C331.343 12.4333 330.776 13.8 329.643 14.8C328.576 15.8 327.11 16.3 325.243 16.3ZM321.043 25H329.543V75H321.043V25ZM361.955 76C355.488 76 350.355 73.6 346.555 68.8C342.821 64 340.955 57.4333 340.955 49.1C340.955 44.0333 341.821 39.6333 343.555 35.9C345.288 32.1 347.755 29.1667 350.955 27.1C354.155 25.0333 357.888 24 362.155 24C368.288 24 373.221 26.5667 376.955 31.7H377.155V0.799996H385.555V62.4C385.555 68.6 385.655 72.8 385.855 75H378.055C377.921 73.4 377.855 70.7667 377.855 67.1H377.655C376.121 69.7667 373.921 71.9333 371.055 73.6C368.188 75.2 365.155 76 361.955 76ZM363.155 69.2C367.421 69.2 370.788 67.9333 373.255 65.4C375.788 62.8 377.055 59.3333 377.055 55V45.9C377.055 41.2333 375.788 37.5 373.255 34.7C370.721 31.9 367.355 30.5 363.155 30.5C358.888 30.5 355.521 32.1667 353.055 35.5C350.655 38.7667 349.455 43.3667 349.455 49.3C349.455 55.5 350.655 60.3667 353.055 63.9C355.521 67.4333 358.888 69.2 363.155 69.2ZM442.17 76C437.637 76 433.37 75.0333 429.37 73.1C425.437 71.1667 422.27 68.5 419.87 65.1L425.47 59.5C427.537 62.1667 430.137 64.3333 433.27 66C436.404 67.6 439.504 68.4 442.57 68.4C446.504 68.4 449.67 67.4 452.07 65.4C454.537 63.4 455.77 60.7667 455.77 57.5C455.77 55.3667 455.337 53.5 454.47 51.9C453.67 50.3 452.237 48.7667 450.17 47.3C448.17 45.7667 445.304 44.1 441.57 42.3C434.437 38.8333 429.404 35.5667 426.47 32.5C423.604 29.3667 422.17 25.7333 422.17 21.6C422.17 16.2667 424.104 12 427.97 8.79999C431.837 5.6 436.97 4 443.37 4C447.837 4 451.904 4.96666 455.57 6.89999C459.304 8.83333 462.004 11.4333 463.67 14.7L457.67 19.1C456.07 16.7667 454.004 14.9333 451.47 13.6C448.937 12.2667 446.27 11.6 443.47 11.6C439.737 11.6 436.77 12.5 434.57 14.3C432.437 16.0333 431.37 18.4 431.37 21.4C431.37 23.2 431.77 24.7333 432.57 26C433.37 27.2667 434.837 28.6 436.97 30C439.17 31.3333 442.604 33.1667 447.27 35.5C453.604 38.6333 458.137 41.8667 460.87 45.2C463.604 48.4667 464.97 52.3333 464.97 56.8C464.97 60.6 464.004 63.9667 462.07 66.9C460.204 69.7667 457.537 72 454.07 73.6C450.67 75.2 446.704 76 442.17 76ZM493.2 76C488.8 76 485.333 74.6 482.8 71.8C480.267 68.9333 479 65 479 60V31.6H470V25H479V11.7L487.1 9.19999H487.5V25H501.7V31.6H487.5V59.2C487.5 62.6 488.133 65.1333 489.4 66.8C490.667 68.4 492.633 69.2 495.3 69.2C498.167 69.2 500.5 68.8333 502.3 68.1L502.9 74.4C500.7 75.4667 497.467 76 493.2 76ZM530.295 76C524.562 76 520.195 74.1333 517.195 70.4C514.262 66.6667 512.795 61.1667 512.795 53.9V25H521.295V54C521.295 64.1333 524.895 69.2 532.095 69.2C534.895 69.2 537.429 68.5 539.695 67.1C541.962 65.6333 543.729 63.6333 544.995 61.1C546.262 58.5 546.895 55.6 546.895 52.4V25H555.395V64.4C555.395 67.7333 555.695 71.2667 556.295 75H548.495C547.895 72.0667 547.562 69.1 547.495 66.1H547.195C545.729 69.1667 543.462 71.6 540.395 73.4C537.395 75.1333 534.029 76 530.295 76ZM586.271 76C579.804 76 574.671 73.6 570.871 68.8C567.138 64 565.271 57.4333 565.271 49.1C565.271 44.0333 566.138 39.6333 567.871 35.9C569.604 32.1 572.071 29.1667 575.271 27.1C578.471 25.0333 582.204 24 586.471 24C592.604 24 597.538 26.5667 601.271 31.7H601.471V0.799996H609.871V62.4C609.871 68.6 609.971 72.8 610.171 75H602.371C602.238 73.4 602.171 70.7667 602.171 67.1H601.971C600.438 69.7667 598.238 71.9333 595.371 73.6C592.504 75.2 589.471 76 586.271 76ZM587.471 69.2C591.738 69.2 595.104 67.9333 597.571 65.4C600.104 62.8 601.371 59.3333 601.371 55V45.9C601.371 41.2333 600.104 37.5 597.571 34.7C595.038 31.9 591.671 30.5 587.471 30.5C583.204 30.5 579.838 32.1667 577.371 35.5C574.971 38.7667 573.771 43.3667 573.771 49.3C573.771 55.5 574.971 60.3667 577.371 63.9C579.838 67.4333 583.204 69.2 587.471 69.2ZM628.27 16.3C626.404 16.3 624.937 15.8 623.87 14.8C622.804 13.8 622.27 12.4333 622.27 10.7C622.27 8.96666 622.804 7.6 623.87 6.6C624.937 5.53333 626.404 5 628.27 5C630.137 5 631.604 5.53333 632.67 6.6C633.804 7.6 634.37 8.96666 634.37 10.7C634.37 12.4333 633.804 13.8 632.67 14.8C631.604 15.8 630.137 16.3 628.27 16.3ZM624.07 25H632.57V75H624.07V25ZM668.382 76C663.449 76 659.149 74.9667 655.482 72.9C651.882 70.7667 649.082 67.7333 647.082 63.8C645.149 59.8667 644.182 55.2667 644.182 50C644.182 44.7333 645.149 40.1333 647.082 36.2C649.082 32.2667 651.882 29.2667 655.482 27.2C659.149 25.0667 663.449 24 668.382 24C675.849 24 681.749 26.3333 686.082 31C690.482 35.6667 692.682 42 692.682 50C692.682 58 690.482 64.3333 686.082 69C681.749 73.6667 675.849 76 668.382 76ZM668.382 69.5C673.315 69.5 677.182 67.7667 679.982 64.3C682.782 60.8333 684.182 56.0667 684.182 50C684.182 43.9333 682.782 39.1667 679.982 35.7C677.182 32.2333 673.315 30.5 668.382 30.5C663.515 30.5 659.682 32.2333 656.882 35.7C654.082 39.1667 652.682 43.9333 652.682 50C652.682 56.0667 654.082 60.8333 656.882 64.3C659.682 67.7667 663.515 69.5 668.382 69.5ZM780.479 2.5H788.779L750.779 79.3H742.479L780.479 2.5ZM792.383 67.5L830.683 46.8L792.383 26V18.5L840.983 44.6V49L792.383 75V67.5Z" fill="#66FCF1"/>
</svg>
