<svg width="442" height="80" viewBox="0 0 442 80" fill="none" xmlns="http://www.w3.org/2000/svg">
<path d="M2.38419e-07 49V44.6L48.6 18.5V26L10.3 46.8L48.6 67.5V75L2.38419e-07 49ZM112.242 38.8V75H106.042L104.542 70.6C102.342 72.3333 99.7422 73.6667 96.7422 74.6C93.8089 75.5333 90.6755 76 87.3422 76C81.3422 76 76.1422 74.5667 71.7422 71.7C67.3422 68.7667 63.9755 64.6 61.6422 59.2C59.3089 53.8 58.1422 47.4 58.1422 40C58.1422 32.7333 59.3755 26.4 61.8422 21C64.3755 15.6 67.9089 11.4333 72.4422 8.5C77.0422 5.5 82.4089 4 88.5422 4C93.7422 4 98.3422 4.96666 102.342 6.89999C106.342 8.83333 109.276 11.5 111.142 14.9L106.042 20C104.309 17.2667 101.942 15.2 98.9422 13.8C96.0089 12.3333 92.5755 11.6 88.6422 11.6C81.9755 11.6 76.7755 14.1 73.0422 19.1C69.3089 24.1 67.4422 31.0667 67.4422 40C67.4422 49.0667 69.2422 56.1333 72.8422 61.2C76.5089 66.2667 81.6089 68.8 88.1422 68.8C91.2089 68.8 94.0089 68.3667 96.5422 67.5C99.1422 66.6333 101.342 65.3667 103.142 63.7V45.6H86.4422V38.8H112.242ZM130.516 16.3C128.65 16.3 127.183 15.8 126.116 14.8C125.05 13.8 124.516 12.4333 124.516 10.7C124.516 8.96666 125.05 7.6 126.116 6.6C127.183 5.53333 128.65 5 130.516 5C132.383 5 133.85 5.53333 134.916 6.6C136.05 7.6 136.616 8.96666 136.616 10.7C136.616 12.4333 136.05 13.8 134.916 14.8C133.85 15.8 132.383 16.3 130.516 16.3ZM126.316 25H134.816V75H126.316V25ZM167.028 76C162.628 76 159.161 74.6 156.628 71.8C154.095 68.9333 152.828 65 152.828 60V31.6H143.828V25H152.828V11.7L160.928 9.19999H161.328V25H175.528V31.6H161.328V59.2C161.328 62.6 161.961 65.1333 163.228 66.8C164.495 68.4 166.461 69.2 169.128 69.2C171.995 69.2 174.328 68.8333 176.128 68.1L176.728 74.4C174.528 75.4667 171.295 76 167.028 76ZM186.623 0.799996H195.123V32.8C196.657 30.0667 198.89 27.9333 201.823 26.4C204.823 24.8 208.157 24 211.823 24C217.69 24 222.223 25.9667 225.423 29.9C228.623 33.7667 230.223 39.2667 230.223 46.4V75H221.723V46.3C221.723 41.1667 220.723 37.2667 218.723 34.6C216.79 31.8667 213.99 30.5 210.323 30.5C207.457 30.5 204.857 31.2333 202.523 32.7C200.19 34.1667 198.357 36.2333 197.023 38.9C195.757 41.5 195.123 44.4333 195.123 47.7V75H186.623V0.799996ZM259.885 76C254.152 76 249.785 74.1333 246.785 70.4C243.852 66.6667 242.385 61.1667 242.385 53.9V25H250.885V54C250.885 64.1333 254.485 69.2 261.685 69.2C264.485 69.2 267.018 68.5 269.285 67.1C271.552 65.6333 273.318 63.6333 274.585 61.1C275.852 58.5 276.485 55.6 276.485 52.4V25H284.985V64.4C284.985 67.7333 285.285 71.2667 285.885 75H278.085C277.485 72.0667 277.152 69.1 277.085 66.1H276.785C275.318 69.1667 273.052 71.6 269.985 73.4C266.985 75.1333 263.618 76 259.885 76ZM321.261 76C318.128 76 315.094 75.2 312.161 73.6C309.228 71.9333 307.028 69.7667 305.561 67.1H305.361C305.428 69.2333 305.361 71.8667 305.161 75H297.361C297.561 72.8 297.661 68.6 297.661 62.4V0.799996H306.161V31.7H306.361C309.694 26.5667 314.728 24 321.461 24C327.861 24 332.928 26.2667 336.661 30.8C340.394 35.2667 342.261 41.3667 342.261 49.1C342.261 57.4333 340.361 64 336.561 68.8C332.828 73.6 327.728 76 321.261 76ZM320.061 69.2C324.328 69.2 327.661 67.4333 330.061 63.9C332.528 60.3667 333.761 55.5 333.761 49.3C333.761 43.3667 332.528 38.7667 330.061 35.5C327.661 32.1667 324.328 30.5 320.061 30.5C315.928 30.5 312.561 31.9333 309.961 34.8C307.428 37.6 306.161 41.3 306.161 45.9V55C306.161 59.3333 307.394 62.8 309.861 65.4C312.394 67.9333 315.794 69.2 320.061 69.2ZM381.26 2.5H389.56L351.56 79.3H343.26L381.26 2.5ZM393.164 67.5L431.464 46.8L393.164 26V18.5L441.764 44.6V49L393.164 75V67.5Z" fill="#66FCF1"/>
</svg>
