<svg width="578" height="234" viewBox="0 0 578 234" fill="none" xmlns="http://www.w3.org/2000/svg">
<path d="M572.281 10.1603L560.573 30.4009L548.898 10.1415L572.281 10.1603Z" stroke="#66FCF1" stroke-width="3"/>
<path d="M547.281 10.1402L535.573 30.3808L523.898 10.1214L547.281 10.1402Z" stroke="#66FCF1" stroke-width="3"/>
<path d="M444.281 10.0574L432.573 30.298L420.898 10.0386L444.281 10.0574Z" stroke="#66FCF1" stroke-width="3"/>
<path d="M469.281 10.0775L457.573 30.3181L445.898 10.0587L469.281 10.0775Z" stroke="#66FCF1" stroke-width="3"/>
<path d="M494.281 10.0976L482.573 30.3382L470.898 10.0788L494.281 10.0976Z" stroke="#66FCF1" stroke-width="3"/>
<path d="M522.281 10.1201L510.573 30.3607L498.898 10.1013L522.281 10.1201Z" stroke="#66FCF1" stroke-width="3"/>
<path d="M248.263 31.8997L236.555 52.1403L224.88 31.8809L248.263 31.8997Z" stroke="#66FCF1" stroke-width="3"/>
<path d="M223.263 31.8796L211.555 52.1202L199.88 31.8608L223.263 31.8796Z" stroke="#66FCF1" stroke-width="3"/>
<path d="M120.263 31.7968L108.555 52.0374L96.8804 31.778L120.263 31.7968Z" stroke="#66FCF1" stroke-width="3"/>
<path d="M145.263 31.8169L133.555 52.0575L121.88 31.7981L145.263 31.8169Z" stroke="#66FCF1" stroke-width="3"/>
<path d="M170.263 31.837L158.555 52.0776L146.88 31.8182L170.263 31.837Z" stroke="#66FCF1" stroke-width="3"/>
<path d="M198.263 31.8595L186.555 52.1001L174.88 31.8407L198.263 31.8595Z" stroke="#66FCF1" stroke-width="3"/>
<path d="M403.263 32.0244L391.555 52.265L379.88 32.0056L403.263 32.0244Z" stroke="#66FCF1" stroke-width="3"/>
<path d="M378.263 32.0043L366.555 52.2449L354.88 31.9855L378.263 32.0043Z" stroke="#66FCF1" stroke-width="3"/>
<path d="M275.263 31.9214L263.555 52.162L251.88 31.9026L275.263 31.9214Z" stroke="#66FCF1" stroke-width="3"/>
<path d="M300.263 31.9416L288.555 52.1822L276.88 31.9228L300.263 31.9416Z" stroke="#66FCF1" stroke-width="3"/>
<path d="M325.263 31.9617L313.555 52.2023L301.88 31.9429L325.263 31.9617Z" stroke="#66FCF1" stroke-width="3"/>
<path d="M353.263 31.9842L341.555 52.2248L329.88 31.9654L353.263 31.9842Z" stroke="#66FCF1" stroke-width="3"/>
<path d="M558.263 32.1491L546.555 52.3897L534.88 32.1303L558.263 32.1491Z" stroke="#66FCF1" stroke-width="3"/>
<path d="M533.263 32.129L521.555 52.3695L509.88 32.1101L533.263 32.129Z" stroke="#66FCF1" stroke-width="3"/>
<path d="M430.263 32.0461L418.555 52.2867L406.88 32.0273L430.263 32.0461Z" stroke="#66FCF1" stroke-width="3"/>
<path d="M455.263 32.0662L443.555 52.3068L431.88 32.0474L455.263 32.0662Z" stroke="#66FCF1" stroke-width="3"/>
<path d="M480.263 32.0863L468.555 52.3269L456.88 32.0675L480.263 32.0863Z" stroke="#66FCF1" stroke-width="3"/>
<path d="M508.263 32.1089L496.555 52.3494L484.88 32.0901L508.263 32.1089Z" stroke="#66FCF1" stroke-width="3"/>
<path d="M221.228 75.878L209.52 96.1186L197.845 75.8592L221.228 75.878Z" stroke="#66FCF1" stroke-width="3"/>
<path d="M196.228 75.8579L184.52 96.0985L172.845 75.8391L196.228 75.8579Z" stroke="#66FCF1" stroke-width="3"/>
<path d="M93.2277 75.7751L81.5201 96.0157L69.845 75.7563L93.2277 75.7751Z" stroke="#66FCF1" stroke-width="3"/>
<path d="M118.228 75.7952L106.52 96.0358L94.845 75.7764L118.228 75.7952Z" stroke="#66FCF1" stroke-width="3"/>
<path d="M143.228 75.8153L131.52 96.0559L119.845 75.7965L143.228 75.8153Z" stroke="#66FCF1" stroke-width="3"/>
<path d="M171.228 75.8378L159.52 96.0784L147.845 75.819L171.228 75.8378Z" stroke="#66FCF1" stroke-width="3"/>
<path d="M376.228 76.0027L364.52 96.2433L352.845 75.9839L376.228 76.0027Z" stroke="#66FCF1" stroke-width="3"/>
<path d="M351.228 75.9826L339.52 96.2232L327.845 75.9638L351.228 75.9826Z" stroke="#66FCF1" stroke-width="3"/>
<path d="M248.228 75.8997L236.52 96.1403L224.845 75.8809L248.228 75.8997Z" stroke="#66FCF1" stroke-width="3"/>
<path d="M273.228 75.9198L261.52 96.1604L249.845 75.901L273.228 75.9198Z" stroke="#66FCF1" stroke-width="3"/>
<path d="M298.228 75.9399L286.52 96.1805L274.845 75.9211L298.228 75.9399Z" stroke="#66FCF1" stroke-width="3"/>
<path d="M326.228 75.9625L314.52 96.203L302.845 75.9436L326.228 75.9625Z" stroke="#66FCF1" stroke-width="3"/>
<path d="M531.228 76.1273L519.52 96.3679L507.845 76.1085L531.228 76.1273Z" stroke="#66FCF1" stroke-width="3"/>
<path d="M506.228 76.1072L494.52 96.3478L482.845 76.0884L506.228 76.1072Z" stroke="#66FCF1" stroke-width="3"/>
<path d="M403.228 76.0244L391.52 96.265L379.845 76.0056L403.228 76.0244Z" stroke="#66FCF1" stroke-width="3"/>
<path d="M428.228 76.0445L416.52 96.2851L404.845 76.0257L428.228 76.0445Z" stroke="#66FCF1" stroke-width="3"/>
<path d="M453.228 76.0646L441.52 96.3052L429.845 76.0458L453.228 76.0646Z" stroke="#66FCF1" stroke-width="3"/>
<path d="M481.228 76.0871L469.52 96.3277L457.845 76.0683L481.228 76.0871Z" stroke="#66FCF1" stroke-width="3"/>
<path d="M221.228 75.878L209.52 96.1186L197.845 75.8592L221.228 75.878Z" stroke="#66FCF1" stroke-width="3"/>
<path d="M196.228 75.8579L184.52 96.0985L172.845 75.8391L196.228 75.8579Z" stroke="#66FCF1" stroke-width="3"/>
<path d="M93.2277 75.7751L81.5201 96.0157L69.845 75.7563L93.2277 75.7751Z" stroke="#66FCF1" stroke-width="3"/>
<path d="M118.228 75.7952L106.52 96.0358L94.845 75.7764L118.228 75.7952Z" stroke="#66FCF1" stroke-width="3"/>
<path d="M143.228 75.8153L131.52 96.0559L119.845 75.7965L143.228 75.8153Z" stroke="#66FCF1" stroke-width="3"/>
<path d="M171.228 75.8378L159.52 96.0784L147.845 75.819L171.228 75.8378Z" stroke="#66FCF1" stroke-width="3"/>
<path d="M376.228 76.0027L364.52 96.2433L352.845 75.9839L376.228 76.0027Z" stroke="#66FCF1" stroke-width="3"/>
<path d="M351.228 75.9826L339.52 96.2232L327.845 75.9638L351.228 75.9826Z" stroke="#66FCF1" stroke-width="3"/>
<path d="M248.228 75.8997L236.52 96.1403L224.845 75.8809L248.228 75.8997Z" stroke="#66FCF1" stroke-width="3"/>
<path d="M273.228 75.9198L261.52 96.1604L249.845 75.901L273.228 75.9198Z" stroke="#66FCF1" stroke-width="3"/>
<path d="M298.228 75.9399L286.52 96.1805L274.845 75.9211L298.228 75.9399Z" stroke="#66FCF1" stroke-width="3"/>
<path d="M326.228 75.9625L314.52 96.203L302.845 75.9436L326.228 75.9625Z" stroke="#66FCF1" stroke-width="3"/>
<path d="M531.228 76.1273L519.52 96.3679L507.845 76.1085L531.228 76.1273Z" stroke="#66FCF1" stroke-width="3"/>
<path d="M506.228 76.1072L494.52 96.3478L482.845 76.0884L506.228 76.1072Z" stroke="#66FCF1" stroke-width="3"/>
<path d="M403.228 76.0244L391.52 96.265L379.845 76.0056L403.228 76.0244Z" stroke="#66FCF1" stroke-width="3"/>
<path d="M428.228 76.0445L416.52 96.2851L404.845 76.0257L428.228 76.0445Z" stroke="#66FCF1" stroke-width="3"/>
<path d="M453.228 76.0646L441.52 96.3052L429.845 76.0458L453.228 76.0646Z" stroke="#66FCF1" stroke-width="3"/>
<path d="M481.228 76.0871L469.52 96.3277L457.845 76.0683L481.228 76.0871Z" stroke="#66FCF1" stroke-width="3"/>
<path d="M221.228 75.878L209.52 96.1186L197.845 75.8592L221.228 75.878Z" stroke="#66FCF1" stroke-width="3"/>
<path d="M196.228 75.8579L184.52 96.0985L172.845 75.8391L196.228 75.8579Z" stroke="#66FCF1" stroke-width="3"/>
<path d="M93.2277 75.7751L81.5201 96.0157L69.845 75.7563L93.2277 75.7751Z" stroke="#66FCF1" stroke-width="3"/>
<path d="M118.228 75.7952L106.52 96.0358L94.845 75.7764L118.228 75.7952Z" stroke="#66FCF1" stroke-width="3"/>
<path d="M143.228 75.8153L131.52 96.0559L119.845 75.7965L143.228 75.8153Z" stroke="#66FCF1" stroke-width="3"/>
<path d="M171.228 75.8378L159.52 96.0784L147.845 75.819L171.228 75.8378Z" stroke="#66FCF1" stroke-width="3"/>
<path d="M376.228 76.0027L364.52 96.2433L352.845 75.9839L376.228 76.0027Z" stroke="#66FCF1" stroke-width="3"/>
<path d="M351.228 75.9826L339.52 96.2232L327.845 75.9638L351.228 75.9826Z" stroke="#66FCF1" stroke-width="3"/>
<path d="M248.228 75.8997L236.52 96.1403L224.845 75.8809L248.228 75.8997Z" stroke="#66FCF1" stroke-width="3"/>
<path d="M273.228 75.9198L261.52 96.1604L249.845 75.901L273.228 75.9198Z" stroke="#66FCF1" stroke-width="3"/>
<path d="M298.228 75.9399L286.52 96.1805L274.845 75.9211L298.228 75.9399Z" stroke="#66FCF1" stroke-width="3"/>
<path d="M326.228 75.9625L314.52 96.203L302.845 75.9436L326.228 75.9625Z" stroke="#66FCF1" stroke-width="3"/>
<path d="M531.228 76.1273L519.52 96.3679L507.845 76.1085L531.228 76.1273Z" stroke="#66FCF1" stroke-width="3"/>
<path d="M506.228 76.1072L494.52 96.3478L482.845 76.0884L506.228 76.1072Z" stroke="#66FCF1" stroke-width="3"/>
<path d="M403.228 76.0244L391.52 96.265L379.845 76.0056L403.228 76.0244Z" stroke="#66FCF1" stroke-width="3"/>
<path d="M428.228 76.0445L416.52 96.2851L404.845 76.0257L428.228 76.0445Z" stroke="#66FCF1" stroke-width="3"/>
<path d="M453.228 76.0646L441.52 96.3052L429.845 76.0458L453.228 76.0646Z" stroke="#66FCF1" stroke-width="3"/>
<path d="M481.228 76.0871L469.52 96.3277L457.845 76.0683L481.228 76.0871Z" stroke="#66FCF1" stroke-width="3"/>
<path d="M221.228 75.878L209.52 96.1186L197.845 75.8592L221.228 75.878Z" stroke="#66FCF1" stroke-width="3"/>
<path d="M196.228 75.8579L184.52 96.0985L172.845 75.8391L196.228 75.8579Z" stroke="#66FCF1" stroke-width="3"/>
<path d="M93.2277 75.7751L81.5201 96.0157L69.845 75.7563L93.2277 75.7751Z" stroke="#66FCF1" stroke-width="3"/>
<path d="M118.228 75.7952L106.52 96.0358L94.845 75.7764L118.228 75.7952Z" stroke="#66FCF1" stroke-width="3"/>
<path d="M143.228 75.8153L131.52 96.0559L119.845 75.7965L143.228 75.8153Z" stroke="#66FCF1" stroke-width="3"/>
<path d="M171.228 75.8378L159.52 96.0784L147.845 75.819L171.228 75.8378Z" stroke="#66FCF1" stroke-width="3"/>
<path d="M376.228 76.0027L364.52 96.2433L352.845 75.9839L376.228 76.0027Z" stroke="#66FCF1" stroke-width="3"/>
<path d="M351.228 75.9826L339.52 96.2232L327.845 75.9638L351.228 75.9826Z" stroke="#66FCF1" stroke-width="3"/>
<path d="M248.228 75.8997L236.52 96.1403L224.845 75.8809L248.228 75.8997Z" stroke="#66FCF1" stroke-width="3"/>
<path d="M273.228 75.9198L261.52 96.1604L249.845 75.901L273.228 75.9198Z" stroke="#66FCF1" stroke-width="3"/>
<path d="M298.228 75.9399L286.52 96.1805L274.845 75.9211L298.228 75.9399Z" stroke="#66FCF1" stroke-width="3"/>
<path d="M326.228 75.9625L314.52 96.203L302.845 75.9436L326.228 75.9625Z" stroke="#66FCF1" stroke-width="3"/>
<path d="M531.228 76.1273L519.52 96.3679L507.845 76.1085L531.228 76.1273Z" stroke="#66FCF1" stroke-width="3"/>
<path d="M506.228 76.1072L494.52 96.3478L482.845 76.0884L506.228 76.1072Z" stroke="#66FCF1" stroke-width="3"/>
<path d="M403.228 76.0244L391.52 96.265L379.845 76.0056L403.228 76.0244Z" stroke="#66FCF1" stroke-width="3"/>
<path d="M428.228 76.0445L416.52 96.2851L404.845 76.0257L428.228 76.0445Z" stroke="#66FCF1" stroke-width="3"/>
<path d="M453.228 76.0646L441.52 96.3052L429.845 76.0458L453.228 76.0646Z" stroke="#66FCF1" stroke-width="3"/>
<path d="M481.228 76.0871L469.52 96.3277L457.845 76.0683L481.228 76.0871Z" stroke="#66FCF1" stroke-width="3"/>
<path d="M218.21 97.8756L206.502 118.116L194.827 97.8568L218.21 97.8756Z" stroke="#66FCF1" stroke-width="3"/>
<path d="M193.21 97.8555L181.502 118.096L169.827 97.8367L193.21 97.8555Z" stroke="#66FCF1" stroke-width="3"/>
<path d="M90.21 97.7727L78.5024 118.013L66.8273 97.7538L90.21 97.7727Z" stroke="#66FCF1" stroke-width="3"/>
<path d="M115.21 97.7928L103.502 118.033L91.8273 97.7739L115.21 97.7928Z" stroke="#66FCF1" stroke-width="3"/>
<path d="M140.21 97.8129L128.502 118.053L116.827 97.7941L140.21 97.8129Z" stroke="#66FCF1" stroke-width="3"/>
<path d="M168.21 97.8354L156.502 118.076L144.827 97.8166L168.21 97.8354Z" stroke="#66FCF1" stroke-width="3"/>
<path d="M370.21 97.9978L358.502 118.238L346.827 97.979L370.21 97.9978Z" stroke="#66FCF1" stroke-width="3"/>
<path d="M345.21 97.9777L333.502 118.218L321.827 97.9589L345.21 97.9777Z" stroke="#66FCF1" stroke-width="3"/>
<path d="M242.21 97.8949L230.502 118.135L218.827 97.8761L242.21 97.8949Z" stroke="#66FCF1" stroke-width="3"/>
<path d="M267.21 97.915L255.502 118.156L243.827 97.8962L267.21 97.915Z" stroke="#66FCF1" stroke-width="3"/>
<path d="M292.21 97.9351L280.502 118.176L268.827 97.9163L292.21 97.9351Z" stroke="#66FCF1" stroke-width="3"/>
<path d="M320.21 97.9576L308.502 118.198L296.827 97.9388L320.21 97.9576Z" stroke="#66FCF1" stroke-width="3"/>
<path d="M518.21 98.1169L506.502 118.357L494.827 98.0981L518.21 98.1169Z" stroke="#66FCF1" stroke-width="3"/>
<path d="M493.21 98.0968L481.502 118.337L469.827 98.078L493.21 98.0968Z" stroke="#66FCF1" stroke-width="3"/>
<path d="M390.21 98.0139L378.502 118.255L366.827 97.9951L390.21 98.0139Z" stroke="#66FCF1" stroke-width="3"/>
<path d="M415.21 98.034L403.502 118.275L391.827 98.0152L415.21 98.034Z" stroke="#66FCF1" stroke-width="3"/>
<path d="M440.21 98.0541L428.502 118.295L416.827 98.0353L440.21 98.0541Z" stroke="#66FCF1" stroke-width="3"/>
<path d="M468.21 98.0767L456.502 118.317L444.827 98.0579L468.21 98.0767Z" stroke="#66FCF1" stroke-width="3"/>
<path d="M235.245 54.8893L223.537 75.1299L211.862 54.8705L235.245 54.8893Z" stroke="#66FCF1" stroke-width="3"/>
<path d="M210.245 54.8692L198.537 75.1098L186.862 54.8504L210.245 54.8692Z" stroke="#66FCF1" stroke-width="3"/>
<path d="M107.245 54.7863L95.537 75.0269L83.8619 54.7675L107.245 54.7863Z" stroke="#66FCF1" stroke-width="3"/>
<path d="M132.245 54.8064L120.537 75.047L108.862 54.7876L132.245 54.8064Z" stroke="#66FCF1" stroke-width="3"/>
<path d="M157.245 54.8265L145.537 75.0671L133.862 54.8077L157.245 54.8265Z" stroke="#66FCF1" stroke-width="3"/>
<path d="M185.245 54.8491L173.537 75.0897L161.862 54.8303L185.245 54.8491Z" stroke="#66FCF1" stroke-width="3"/>
<path d="M390.244 55.0139L378.537 75.2545L366.862 54.9951L390.244 55.0139Z" stroke="#66FCF1" stroke-width="3"/>
<path d="M365.245 54.9938L353.537 75.2344L341.862 54.975L365.245 54.9938Z" stroke="#66FCF1" stroke-width="3"/>
<path d="M262.245 54.911L250.537 75.1516L238.862 54.8922L262.245 54.911Z" stroke="#66FCF1" stroke-width="3"/>
<path d="M287.245 54.9311L275.537 75.1717L263.862 54.9123L287.245 54.9311Z" stroke="#66FCF1" stroke-width="3"/>
<path d="M312.245 54.9512L300.537 75.1918L288.862 54.9324L312.245 54.9512Z" stroke="#66FCF1" stroke-width="3"/>
<path d="M340.245 54.9737L328.537 75.2143L316.862 54.9549L340.245 54.9737Z" stroke="#66FCF1" stroke-width="3"/>
<path d="M545.244 55.1386L533.537 75.3792L521.862 55.1198L545.244 55.1386Z" stroke="#66FCF1" stroke-width="3"/>
<path d="M520.244 55.1185L508.537 75.3591L496.862 55.0997L520.244 55.1185Z" stroke="#66FCF1" stroke-width="3"/>
<path d="M417.244 55.0357L405.537 75.2762L393.862 55.0168L417.244 55.0357Z" stroke="#66FCF1" stroke-width="3"/>
<path d="M442.244 55.0558L430.537 75.2963L418.862 55.0369L442.244 55.0558Z" stroke="#66FCF1" stroke-width="3"/>
<path d="M467.244 55.0759L455.537 75.3165L443.862 55.0571L467.244 55.0759Z" stroke="#66FCF1" stroke-width="3"/>
<path d="M495.244 55.0984L483.537 75.339L471.862 55.0796L495.244 55.0984Z" stroke="#66FCF1" stroke-width="3"/>
<path d="M262.281 9.91101L250.573 30.1516L238.898 9.8922L262.281 9.91101Z" stroke="#66FCF1" stroke-width="3"/>
<path d="M237.281 9.8909L225.573 30.1315L213.898 9.87209L237.281 9.8909Z" stroke="#66FCF1" stroke-width="3"/>
<path d="M134.281 9.80806L122.573 30.0487L110.898 9.78925L134.281 9.80806Z" stroke="#66FCF1" stroke-width="3"/>
<path d="M159.281 9.82817L147.573 30.0688L135.898 9.80936L159.281 9.82817Z" stroke="#66FCF1" stroke-width="3"/>
<path d="M184.281 9.84828L172.573 30.0889L160.898 9.82948L184.281 9.84828Z" stroke="#66FCF1" stroke-width="3"/>
<path d="M212.281 9.8708L200.573 30.1114L188.898 9.852L212.281 9.8708Z" stroke="#66FCF1" stroke-width="3"/>
<path d="M417.281 10.0357L405.573 30.2763L393.898 10.0169L417.281 10.0357Z" stroke="#66FCF1" stroke-width="3"/>
<path d="M392.281 10.0155L380.573 30.2561L368.898 9.99674L392.281 10.0155Z" stroke="#66FCF1" stroke-width="3"/>
<path d="M289.281 9.93271L277.573 30.1733L265.898 9.9139L289.281 9.93271Z" stroke="#66FCF1" stroke-width="3"/>
<path d="M314.281 9.95282L302.573 30.1934L290.898 9.93401L314.281 9.95282Z" stroke="#66FCF1" stroke-width="3"/>
<path d="M339.281 9.97293L327.573 30.2135L315.898 9.95412L339.281 9.97293Z" stroke="#66FCF1" stroke-width="3"/>
<path d="M367.281 9.99545L355.573 30.236L343.898 9.97665L367.281 9.99545Z" stroke="#66FCF1" stroke-width="3"/>
<path d="M510.281 122.16L498.573 142.401L486.898 122.142L510.281 122.16Z" stroke="#66FCF1" stroke-width="3"/>
<path d="M485.281 122.14L473.573 142.381L461.898 122.121L485.281 122.14Z" stroke="#66FCF1" stroke-width="3"/>
<path d="M382.281 122.057L370.573 142.298L358.898 122.039L382.281 122.057Z" stroke="#66FCF1" stroke-width="3"/>
<path d="M407.281 122.077L395.573 142.318L383.898 122.059L407.281 122.077Z" stroke="#66FCF1" stroke-width="3"/>
<path d="M432.281 122.098L420.573 142.338L408.898 122.079L432.281 122.098Z" stroke="#66FCF1" stroke-width="3"/>
<path d="M460.281 122.12L448.573 142.361L436.898 122.101L460.281 122.12Z" stroke="#66FCF1" stroke-width="3"/>
<path d="M186.263 143.9L174.555 164.14L162.88 143.881L186.263 143.9Z" stroke="#66FCF1" stroke-width="3"/>
<path d="M161.263 143.88L149.555 164.12L137.88 143.861L161.263 143.88Z" stroke="#66FCF1" stroke-width="3"/>
<path d="M58.2631 143.797L46.5555 164.037L34.8804 143.778L58.2631 143.797Z" stroke="#66FCF1" stroke-width="3"/>
<path d="M83.2631 143.817L71.5554 164.057L59.8804 143.798L83.2631 143.817Z" stroke="#66FCF1" stroke-width="3"/>
<path d="M108.263 143.837L96.5554 164.078L84.8804 143.818L108.263 143.837Z" stroke="#66FCF1" stroke-width="3"/>
<path d="M136.263 143.86L124.555 164.1L112.88 143.841L136.263 143.86Z" stroke="#66FCF1" stroke-width="3"/>
<path d="M341.263 144.024L329.555 164.265L317.88 144.006L341.263 144.024Z" stroke="#66FCF1" stroke-width="3"/>
<path d="M316.263 144.004L304.555 164.245L292.88 143.985L316.263 144.004Z" stroke="#66FCF1" stroke-width="3"/>
<path d="M213.263 143.921L201.555 164.162L189.88 143.903L213.263 143.921Z" stroke="#66FCF1" stroke-width="3"/>
<path d="M238.263 143.942L226.555 164.182L214.88 143.923L238.263 143.942Z" stroke="#66FCF1" stroke-width="3"/>
<path d="M263.263 143.962L251.555 164.202L239.88 143.943L263.263 143.962Z" stroke="#66FCF1" stroke-width="3"/>
<path d="M291.263 143.984L279.555 164.225L267.88 143.965L291.263 143.984Z" stroke="#66FCF1" stroke-width="3"/>
<path d="M496.263 144.149L484.555 164.39L472.88 144.13L496.263 144.149Z" stroke="#66FCF1" stroke-width="3"/>
<path d="M471.263 144.129L459.555 164.37L447.88 144.11L471.263 144.129Z" stroke="#66FCF1" stroke-width="3"/>
<path d="M368.263 144.046L356.555 164.287L344.88 144.027L368.263 144.046Z" stroke="#66FCF1" stroke-width="3"/>
<path d="M393.263 144.066L381.555 164.307L369.88 144.047L393.263 144.066Z" stroke="#66FCF1" stroke-width="3"/>
<path d="M418.263 144.086L406.555 164.327L394.88 144.068L418.263 144.086Z" stroke="#66FCF1" stroke-width="3"/>
<path d="M446.263 144.109L434.555 164.349L422.88 144.09L446.263 144.109Z" stroke="#66FCF1" stroke-width="3"/>
<path d="M159.228 187.878L147.52 208.119L135.845 187.859L159.228 187.878Z" stroke="#66FCF1" stroke-width="3"/>
<path d="M134.228 187.858L122.52 208.098L110.845 187.839L134.228 187.858Z" stroke="#66FCF1" stroke-width="3"/>
<path d="M31.2277 187.775L19.5201 208.016L7.84503 187.756L31.2277 187.775Z" stroke="#66FCF1" stroke-width="3"/>
<path d="M56.2277 187.795L44.5201 208.036L32.845 187.776L56.2277 187.795Z" stroke="#66FCF1" stroke-width="3"/>
<path d="M81.2277 187.815L69.5201 208.056L57.845 187.796L81.2277 187.815Z" stroke="#66FCF1" stroke-width="3"/>
<path d="M109.228 187.838L97.5201 208.078L85.845 187.819L109.228 187.838Z" stroke="#66FCF1" stroke-width="3"/>
<path d="M314.228 188.003L302.52 208.243L290.845 187.984L314.228 188.003Z" stroke="#66FCF1" stroke-width="3"/>
<path d="M289.228 187.983L277.52 208.223L265.845 187.964L289.228 187.983Z" stroke="#66FCF1" stroke-width="3"/>
<path d="M186.228 187.9L174.52 208.14L162.845 187.881L186.228 187.9Z" stroke="#66FCF1" stroke-width="3"/>
<path d="M211.228 187.92L199.52 208.16L187.845 187.901L211.228 187.92Z" stroke="#66FCF1" stroke-width="3"/>
<path d="M236.228 187.94L224.52 208.181L212.845 187.921L236.228 187.94Z" stroke="#66FCF1" stroke-width="3"/>
<path d="M264.228 187.962L252.52 208.203L240.845 187.944L264.228 187.962Z" stroke="#66FCF1" stroke-width="3"/>
<path d="M469.228 188.127L457.52 208.368L445.845 188.109L469.228 188.127Z" stroke="#66FCF1" stroke-width="3"/>
<path d="M444.228 188.107L432.52 208.348L420.845 188.088L444.228 188.107Z" stroke="#66FCF1" stroke-width="3"/>
<path d="M341.228 188.024L329.52 208.265L317.845 188.006L341.228 188.024Z" stroke="#66FCF1" stroke-width="3"/>
<path d="M366.228 188.044L354.52 208.285L342.845 188.026L366.228 188.044Z" stroke="#66FCF1" stroke-width="3"/>
<path d="M391.228 188.065L379.52 208.305L367.845 188.046L391.228 188.065Z" stroke="#66FCF1" stroke-width="3"/>
<path d="M419.228 188.087L407.52 208.328L395.845 188.068L419.228 188.087Z" stroke="#66FCF1" stroke-width="3"/>
<path d="M159.228 187.878L147.52 208.119L135.845 187.859L159.228 187.878Z" stroke="#66FCF1" stroke-width="3"/>
<path d="M134.228 187.858L122.52 208.098L110.845 187.839L134.228 187.858Z" stroke="#66FCF1" stroke-width="3"/>
<path d="M31.2277 187.775L19.5201 208.016L7.84503 187.756L31.2277 187.775Z" stroke="#66FCF1" stroke-width="3"/>
<path d="M56.2277 187.795L44.5201 208.036L32.845 187.776L56.2277 187.795Z" stroke="#66FCF1" stroke-width="3"/>
<path d="M81.2277 187.815L69.5201 208.056L57.845 187.796L81.2277 187.815Z" stroke="#66FCF1" stroke-width="3"/>
<path d="M109.228 187.838L97.5201 208.078L85.845 187.819L109.228 187.838Z" stroke="#66FCF1" stroke-width="3"/>
<path d="M314.228 188.003L302.52 208.243L290.845 187.984L314.228 188.003Z" stroke="#66FCF1" stroke-width="3"/>
<path d="M289.228 187.983L277.52 208.223L265.845 187.964L289.228 187.983Z" stroke="#66FCF1" stroke-width="3"/>
<path d="M186.228 187.9L174.52 208.14L162.845 187.881L186.228 187.9Z" stroke="#66FCF1" stroke-width="3"/>
<path d="M211.228 187.92L199.52 208.16L187.845 187.901L211.228 187.92Z" stroke="#66FCF1" stroke-width="3"/>
<path d="M236.228 187.94L224.52 208.181L212.845 187.921L236.228 187.94Z" stroke="#66FCF1" stroke-width="3"/>
<path d="M264.228 187.962L252.52 208.203L240.845 187.944L264.228 187.962Z" stroke="#66FCF1" stroke-width="3"/>
<path d="M469.228 188.127L457.52 208.368L445.845 188.109L469.228 188.127Z" stroke="#66FCF1" stroke-width="3"/>
<path d="M444.228 188.107L432.52 208.348L420.845 188.088L444.228 188.107Z" stroke="#66FCF1" stroke-width="3"/>
<path d="M341.228 188.024L329.52 208.265L317.845 188.006L341.228 188.024Z" stroke="#66FCF1" stroke-width="3"/>
<path d="M366.228 188.044L354.52 208.285L342.845 188.026L366.228 188.044Z" stroke="#66FCF1" stroke-width="3"/>
<path d="M391.228 188.065L379.52 208.305L367.845 188.046L391.228 188.065Z" stroke="#66FCF1" stroke-width="3"/>
<path d="M419.228 188.087L407.52 208.328L395.845 188.068L419.228 188.087Z" stroke="#66FCF1" stroke-width="3"/>
<path d="M159.228 187.878L147.52 208.119L135.845 187.859L159.228 187.878Z" stroke="#66FCF1" stroke-width="3"/>
<path d="M134.228 187.858L122.52 208.098L110.845 187.839L134.228 187.858Z" stroke="#66FCF1" stroke-width="3"/>
<path d="M31.2277 187.775L19.5201 208.016L7.84503 187.756L31.2277 187.775Z" stroke="#66FCF1" stroke-width="3"/>
<path d="M56.2277 187.795L44.5201 208.036L32.845 187.776L56.2277 187.795Z" stroke="#66FCF1" stroke-width="3"/>
<path d="M81.2277 187.815L69.5201 208.056L57.845 187.796L81.2277 187.815Z" stroke="#66FCF1" stroke-width="3"/>
<path d="M109.228 187.838L97.5201 208.078L85.845 187.819L109.228 187.838Z" stroke="#66FCF1" stroke-width="3"/>
<path d="M314.228 188.003L302.52 208.243L290.845 187.984L314.228 188.003Z" stroke="#66FCF1" stroke-width="3"/>
<path d="M289.228 187.983L277.52 208.223L265.845 187.964L289.228 187.983Z" stroke="#66FCF1" stroke-width="3"/>
<path d="M186.228 187.9L174.52 208.14L162.845 187.881L186.228 187.9Z" stroke="#66FCF1" stroke-width="3"/>
<path d="M211.228 187.92L199.52 208.16L187.845 187.901L211.228 187.92Z" stroke="#66FCF1" stroke-width="3"/>
<path d="M236.228 187.94L224.52 208.181L212.845 187.921L236.228 187.94Z" stroke="#66FCF1" stroke-width="3"/>
<path d="M264.228 187.962L252.52 208.203L240.845 187.944L264.228 187.962Z" stroke="#66FCF1" stroke-width="3"/>
<path d="M469.228 188.127L457.52 208.368L445.845 188.109L469.228 188.127Z" stroke="#66FCF1" stroke-width="3"/>
<path d="M444.228 188.107L432.52 208.348L420.845 188.088L444.228 188.107Z" stroke="#66FCF1" stroke-width="3"/>
<path d="M341.228 188.024L329.52 208.265L317.845 188.006L341.228 188.024Z" stroke="#66FCF1" stroke-width="3"/>
<path d="M366.228 188.044L354.52 208.285L342.845 188.026L366.228 188.044Z" stroke="#66FCF1" stroke-width="3"/>
<path d="M391.228 188.065L379.52 208.305L367.845 188.046L391.228 188.065Z" stroke="#66FCF1" stroke-width="3"/>
<path d="M419.228 188.087L407.52 208.328L395.845 188.068L419.228 188.087Z" stroke="#66FCF1" stroke-width="3"/>
<path d="M159.228 187.878L147.52 208.119L135.845 187.859L159.228 187.878Z" stroke="#66FCF1" stroke-width="3"/>
<path d="M134.228 187.858L122.52 208.098L110.845 187.839L134.228 187.858Z" stroke="#66FCF1" stroke-width="3"/>
<path d="M31.2277 187.775L19.5201 208.016L7.84503 187.756L31.2277 187.775Z" stroke="#66FCF1" stroke-width="3"/>
<path d="M56.2277 187.795L44.5201 208.036L32.845 187.776L56.2277 187.795Z" stroke="#66FCF1" stroke-width="3"/>
<path d="M81.2277 187.815L69.5201 208.056L57.845 187.796L81.2277 187.815Z" stroke="#66FCF1" stroke-width="3"/>
<path d="M109.228 187.838L97.5201 208.078L85.845 187.819L109.228 187.838Z" stroke="#66FCF1" stroke-width="3"/>
<path d="M314.228 188.003L302.52 208.243L290.845 187.984L314.228 188.003Z" stroke="#66FCF1" stroke-width="3"/>
<path d="M289.228 187.983L277.52 208.223L265.845 187.964L289.228 187.983Z" stroke="#66FCF1" stroke-width="3"/>
<path d="M186.228 187.9L174.52 208.14L162.845 187.881L186.228 187.9Z" stroke="#66FCF1" stroke-width="3"/>
<path d="M211.228 187.92L199.52 208.16L187.845 187.901L211.228 187.92Z" stroke="#66FCF1" stroke-width="3"/>
<path d="M236.228 187.94L224.52 208.181L212.845 187.921L236.228 187.94Z" stroke="#66FCF1" stroke-width="3"/>
<path d="M264.228 187.962L252.52 208.203L240.845 187.944L264.228 187.962Z" stroke="#66FCF1" stroke-width="3"/>
<path d="M469.228 188.127L457.52 208.368L445.845 188.109L469.228 188.127Z" stroke="#66FCF1" stroke-width="3"/>
<path d="M444.228 188.107L432.52 208.348L420.845 188.088L444.228 188.107Z" stroke="#66FCF1" stroke-width="3"/>
<path d="M341.228 188.024L329.52 208.265L317.845 188.006L341.228 188.024Z" stroke="#66FCF1" stroke-width="3"/>
<path d="M366.228 188.044L354.52 208.285L342.845 188.026L366.228 188.044Z" stroke="#66FCF1" stroke-width="3"/>
<path d="M391.228 188.065L379.52 208.305L367.845 188.046L391.228 188.065Z" stroke="#66FCF1" stroke-width="3"/>
<path d="M419.228 188.087L407.52 208.328L395.845 188.068L419.228 188.087Z" stroke="#66FCF1" stroke-width="3"/>
<path d="M156.21 209.876L144.502 230.116L132.827 209.857L156.21 209.876Z" stroke="#66FCF1" stroke-width="3"/>
<path d="M131.21 209.855L119.502 230.096L107.827 209.837L131.21 209.855Z" stroke="#66FCF1" stroke-width="3"/>
<path d="M28.21 209.773L16.5024 230.013L4.82733 209.754L28.21 209.773Z" stroke="#66FCF1" stroke-width="3"/>
<path d="M53.21 209.793L41.5024 230.033L29.8273 209.774L53.21 209.793Z" stroke="#66FCF1" stroke-width="3"/>
<path d="M78.21 209.813L66.5024 230.053L54.8273 209.794L78.21 209.813Z" stroke="#66FCF1" stroke-width="3"/>
<path d="M106.21 209.835L94.5024 230.076L82.8273 209.817L106.21 209.835Z" stroke="#66FCF1" stroke-width="3"/>
<path d="M308.21 209.998L296.502 230.238L284.827 209.979L308.21 209.998Z" stroke="#66FCF1" stroke-width="3"/>
<path d="M283.21 209.978L271.502 230.218L259.827 209.959L283.21 209.978Z" stroke="#66FCF1" stroke-width="3"/>
<path d="M180.21 209.895L168.502 230.135L156.827 209.876L180.21 209.895Z" stroke="#66FCF1" stroke-width="3"/>
<path d="M205.21 209.915L193.502 230.156L181.827 209.896L205.21 209.915Z" stroke="#66FCF1" stroke-width="3"/>
<path d="M230.21 209.935L218.502 230.176L206.827 209.916L230.21 209.935Z" stroke="#66FCF1" stroke-width="3"/>
<path d="M258.21 209.958L246.502 230.198L234.827 209.939L258.21 209.958Z" stroke="#66FCF1" stroke-width="3"/>
<path d="M456.21 210.117L444.502 230.357L432.827 210.098L456.21 210.117Z" stroke="#66FCF1" stroke-width="3"/>
<path d="M431.21 210.097L419.502 230.337L407.827 210.078L431.21 210.097Z" stroke="#66FCF1" stroke-width="3"/>
<path d="M328.21 210.014L316.502 230.255L304.827 209.995L328.21 210.014Z" stroke="#66FCF1" stroke-width="3"/>
<path d="M353.21 210.034L341.502 230.275L329.827 210.015L353.21 210.034Z" stroke="#66FCF1" stroke-width="3"/>
<path d="M378.21 210.054L366.502 230.295L354.827 210.035L378.21 210.054Z" stroke="#66FCF1" stroke-width="3"/>
<path d="M406.21 210.077L394.502 230.317L382.827 210.058L406.21 210.077Z" stroke="#66FCF1" stroke-width="3"/>
<path d="M173.245 166.889L161.537 187.13L149.862 166.87L173.245 166.889Z" stroke="#66FCF1" stroke-width="3"/>
<path d="M148.245 166.869L136.537 187.11L124.862 166.85L148.245 166.869Z" stroke="#66FCF1" stroke-width="3"/>
<path d="M45.2446 166.786L33.537 187.027L21.8619 166.768L45.2446 166.786Z" stroke="#66FCF1" stroke-width="3"/>
<path d="M70.2446 166.806L58.5369 187.047L46.8619 166.788L70.2446 166.806Z" stroke="#66FCF1" stroke-width="3"/>
<path d="M95.2446 166.827L83.5369 187.067L71.8619 166.808L95.2446 166.827Z" stroke="#66FCF1" stroke-width="3"/>
<path d="M123.245 166.849L111.537 187.09L99.8619 166.83L123.245 166.849Z" stroke="#66FCF1" stroke-width="3"/>
<path d="M328.244 167.014L316.537 187.255L304.862 166.995L328.244 167.014Z" stroke="#66FCF1" stroke-width="3"/>
<path d="M303.245 166.994L291.537 187.234L279.862 166.975L303.245 166.994Z" stroke="#66FCF1" stroke-width="3"/>
<path d="M200.245 166.911L188.537 187.152L176.862 166.892L200.245 166.911Z" stroke="#66FCF1" stroke-width="3"/>
<path d="M225.245 166.931L213.537 187.172L201.862 166.912L225.245 166.931Z" stroke="#66FCF1" stroke-width="3"/>
<path d="M250.245 166.951L238.537 187.192L226.862 166.932L250.245 166.951Z" stroke="#66FCF1" stroke-width="3"/>
<path d="M278.245 166.974L266.537 187.214L254.862 166.955L278.245 166.974Z" stroke="#66FCF1" stroke-width="3"/>
<path d="M483.244 167.139L471.537 187.379L459.862 167.12L483.244 167.139Z" stroke="#66FCF1" stroke-width="3"/>
<path d="M458.244 167.118L446.537 187.359L434.862 167.1L458.244 167.118Z" stroke="#66FCF1" stroke-width="3"/>
<path d="M355.244 167.036L343.537 187.276L331.862 167.017L355.244 167.036Z" stroke="#66FCF1" stroke-width="3"/>
<path d="M380.244 167.056L368.537 187.296L356.862 167.037L380.244 167.056Z" stroke="#66FCF1" stroke-width="3"/>
<path d="M405.244 167.076L393.537 187.316L381.862 167.057L405.244 167.076Z" stroke="#66FCF1" stroke-width="3"/>
<path d="M433.244 167.098L421.537 187.339L409.862 167.08L433.244 167.098Z" stroke="#66FCF1" stroke-width="3"/>
<path d="M200.281 121.911L188.573 142.152L176.898 121.892L200.281 121.911Z" stroke="#66FCF1" stroke-width="3"/>
<path d="M175.281 121.891L163.573 142.131L151.898 121.872L175.281 121.891Z" stroke="#66FCF1" stroke-width="3"/>
<path d="M72.2808 121.808L60.5731 142.049L48.8981 121.789L72.2808 121.808Z" stroke="#66FCF1" stroke-width="3"/>
<path d="M97.2808 121.828L85.5731 142.069L73.8981 121.809L97.2808 121.828Z" stroke="#66FCF1" stroke-width="3"/>
<path d="M122.281 121.848L110.573 142.089L98.8981 121.829L122.281 121.848Z" stroke="#66FCF1" stroke-width="3"/>
<path d="M150.281 121.871L138.573 142.111L126.898 121.852L150.281 121.871Z" stroke="#66FCF1" stroke-width="3"/>
<path d="M355.281 122.036L343.573 142.276L331.898 122.017L355.281 122.036Z" stroke="#66FCF1" stroke-width="3"/>
<path d="M330.281 122.016L318.573 142.256L306.898 121.997L330.281 122.016Z" stroke="#66FCF1" stroke-width="3"/>
<path d="M227.281 121.933L215.573 142.173L203.898 121.914L227.281 121.933Z" stroke="#66FCF1" stroke-width="3"/>
<path d="M252.281 121.953L240.573 142.193L228.898 121.934L252.281 121.953Z" stroke="#66FCF1" stroke-width="3"/>
<path d="M277.281 121.973L265.573 142.214L253.898 121.954L277.281 121.973Z" stroke="#66FCF1" stroke-width="3"/>
<path d="M305.281 121.995L293.573 142.236L281.898 121.977L305.281 121.995Z" stroke="#66FCF1" stroke-width="3"/>
</svg>
