<svg width="582" height="230" viewBox="0 0 582 230" fill="none" xmlns="http://www.w3.org/2000/svg">
<path d="M4.80866 220.25L16.5 200L28.1913 220.25H4.80866Z" stroke="#66FCF1" stroke-width="3"/>
<path d="M29.8087 220.25L41.5 200L53.1913 220.25H29.8087Z" stroke="#66FCF1" stroke-width="3"/>
<path d="M132.809 220.25L144.5 200L156.191 220.25H132.809Z" stroke="#66FCF1" stroke-width="3"/>
<path d="M107.809 220.25L119.5 200L131.191 220.25H107.809Z" stroke="#66FCF1" stroke-width="3"/>
<path d="M82.8087 220.25L94.5 200L106.191 220.25H82.8087Z" stroke="#66FCF1" stroke-width="3"/>
<path d="M54.8087 220.25L66.5 200L78.1913 220.25H54.8087Z" stroke="#66FCF1" stroke-width="3"/>
<path d="M328.809 198.25L340.5 178L352.191 198.25H328.809Z" stroke="#66FCF1" stroke-width="3"/>
<path d="M353.809 198.25L365.5 178L377.191 198.25H353.809Z" stroke="#66FCF1" stroke-width="3"/>
<path d="M456.809 198.25L468.5 178L480.191 198.25H456.809Z" stroke="#66FCF1" stroke-width="3"/>
<path d="M431.809 198.25L443.5 178L455.191 198.25H431.809Z" stroke="#66FCF1" stroke-width="3"/>
<path d="M406.809 198.25L418.5 178L430.191 198.25H406.809Z" stroke="#66FCF1" stroke-width="3"/>
<path d="M378.809 198.25L390.5 178L402.191 198.25H378.809Z" stroke="#66FCF1" stroke-width="3"/>
<path d="M173.809 198.25L185.5 178L197.191 198.25H173.809Z" stroke="#66FCF1" stroke-width="3"/>
<path d="M198.809 198.25L210.5 178L222.191 198.25H198.809Z" stroke="#66FCF1" stroke-width="3"/>
<path d="M301.809 198.25L313.5 178L325.191 198.25H301.809Z" stroke="#66FCF1" stroke-width="3"/>
<path d="M276.809 198.25L288.5 178L300.191 198.25H276.809Z" stroke="#66FCF1" stroke-width="3"/>
<path d="M251.809 198.25L263.5 178L275.191 198.25H251.809Z" stroke="#66FCF1" stroke-width="3"/>
<path d="M223.809 198.25L235.5 178L247.191 198.25H223.809Z" stroke="#66FCF1" stroke-width="3"/>
<path d="M18.8087 198.25L30.5 178L42.1913 198.25H18.8087Z" stroke="#66FCF1" stroke-width="3"/>
<path d="M43.8087 198.25L55.5 178L67.1913 198.25H43.8087Z" stroke="#66FCF1" stroke-width="3"/>
<path d="M146.809 198.25L158.5 178L170.191 198.25H146.809Z" stroke="#66FCF1" stroke-width="3"/>
<path d="M121.809 198.25L133.5 178L145.191 198.25H121.809Z" stroke="#66FCF1" stroke-width="3"/>
<path d="M96.8087 198.25L108.5 178L120.191 198.25H96.8087Z" stroke="#66FCF1" stroke-width="3"/>
<path d="M68.8087 198.25L80.5 178L92.1913 198.25H68.8087Z" stroke="#66FCF1" stroke-width="3"/>
<path d="M355.809 154.25L367.5 134L379.191 154.25H355.809Z" stroke="#66FCF1" stroke-width="3"/>
<path d="M380.809 154.25L392.5 134L404.191 154.25H380.809Z" stroke="#66FCF1" stroke-width="3"/>
<path d="M483.809 154.25L495.5 134L507.191 154.25H483.809Z" stroke="#66FCF1" stroke-width="3"/>
<path d="M458.809 154.25L470.5 134L482.191 154.25H458.809Z" stroke="#66FCF1" stroke-width="3"/>
<path d="M433.809 154.25L445.5 134L457.191 154.25H433.809Z" stroke="#66FCF1" stroke-width="3"/>
<path d="M405.809 154.25L417.5 134L429.191 154.25H405.809Z" stroke="#66FCF1" stroke-width="3"/>
<path d="M200.809 154.25L212.5 134L224.191 154.25H200.809Z" stroke="#66FCF1" stroke-width="3"/>
<path d="M225.809 154.25L237.5 134L249.191 154.25H225.809Z" stroke="#66FCF1" stroke-width="3"/>
<path d="M328.809 154.25L340.5 134L352.191 154.25H328.809Z" stroke="#66FCF1" stroke-width="3"/>
<path d="M303.809 154.25L315.5 134L327.191 154.25H303.809Z" stroke="#66FCF1" stroke-width="3"/>
<path d="M278.809 154.25L290.5 134L302.191 154.25H278.809Z" stroke="#66FCF1" stroke-width="3"/>
<path d="M250.809 154.25L262.5 134L274.191 154.25H250.809Z" stroke="#66FCF1" stroke-width="3"/>
<path d="M45.8087 154.25L57.5 134L69.1913 154.25H45.8087Z" stroke="#66FCF1" stroke-width="3"/>
<path d="M70.8087 154.25L82.5 134L94.1913 154.25H70.8087Z" stroke="#66FCF1" stroke-width="3"/>
<path d="M173.809 154.25L185.5 134L197.191 154.25H173.809Z" stroke="#66FCF1" stroke-width="3"/>
<path d="M148.809 154.25L160.5 134L172.191 154.25H148.809Z" stroke="#66FCF1" stroke-width="3"/>
<path d="M123.809 154.25L135.5 134L147.191 154.25H123.809Z" stroke="#66FCF1" stroke-width="3"/>
<path d="M95.8087 154.25L107.5 134L119.191 154.25H95.8087Z" stroke="#66FCF1" stroke-width="3"/>
<path d="M355.809 154.25L367.5 134L379.191 154.25H355.809Z" stroke="#66FCF1" stroke-width="3"/>
<path d="M380.809 154.25L392.5 134L404.191 154.25H380.809Z" stroke="#66FCF1" stroke-width="3"/>
<path d="M483.809 154.25L495.5 134L507.191 154.25H483.809Z" stroke="#66FCF1" stroke-width="3"/>
<path d="M458.809 154.25L470.5 134L482.191 154.25H458.809Z" stroke="#66FCF1" stroke-width="3"/>
<path d="M433.809 154.25L445.5 134L457.191 154.25H433.809Z" stroke="#66FCF1" stroke-width="3"/>
<path d="M405.809 154.25L417.5 134L429.191 154.25H405.809Z" stroke="#66FCF1" stroke-width="3"/>
<path d="M200.809 154.25L212.5 134L224.191 154.25H200.809Z" stroke="#66FCF1" stroke-width="3"/>
<path d="M225.809 154.25L237.5 134L249.191 154.25H225.809Z" stroke="#66FCF1" stroke-width="3"/>
<path d="M328.809 154.25L340.5 134L352.191 154.25H328.809Z" stroke="#66FCF1" stroke-width="3"/>
<path d="M303.809 154.25L315.5 134L327.191 154.25H303.809Z" stroke="#66FCF1" stroke-width="3"/>
<path d="M278.809 154.25L290.5 134L302.191 154.25H278.809Z" stroke="#66FCF1" stroke-width="3"/>
<path d="M250.809 154.25L262.5 134L274.191 154.25H250.809Z" stroke="#66FCF1" stroke-width="3"/>
<path d="M45.8087 154.25L57.5 134L69.1913 154.25H45.8087Z" stroke="#66FCF1" stroke-width="3"/>
<path d="M70.8087 154.25L82.5 134L94.1913 154.25H70.8087Z" stroke="#66FCF1" stroke-width="3"/>
<path d="M173.809 154.25L185.5 134L197.191 154.25H173.809Z" stroke="#66FCF1" stroke-width="3"/>
<path d="M148.809 154.25L160.5 134L172.191 154.25H148.809Z" stroke="#66FCF1" stroke-width="3"/>
<path d="M123.809 154.25L135.5 134L147.191 154.25H123.809Z" stroke="#66FCF1" stroke-width="3"/>
<path d="M95.8087 154.25L107.5 134L119.191 154.25H95.8087Z" stroke="#66FCF1" stroke-width="3"/>
<path d="M355.809 154.25L367.5 134L379.191 154.25H355.809Z" stroke="#66FCF1" stroke-width="3"/>
<path d="M380.809 154.25L392.5 134L404.191 154.25H380.809Z" stroke="#66FCF1" stroke-width="3"/>
<path d="M483.809 154.25L495.5 134L507.191 154.25H483.809Z" stroke="#66FCF1" stroke-width="3"/>
<path d="M458.809 154.25L470.5 134L482.191 154.25H458.809Z" stroke="#66FCF1" stroke-width="3"/>
<path d="M433.809 154.25L445.5 134L457.191 154.25H433.809Z" stroke="#66FCF1" stroke-width="3"/>
<path d="M405.809 154.25L417.5 134L429.191 154.25H405.809Z" stroke="#66FCF1" stroke-width="3"/>
<path d="M200.809 154.25L212.5 134L224.191 154.25H200.809Z" stroke="#66FCF1" stroke-width="3"/>
<path d="M225.809 154.25L237.5 134L249.191 154.25H225.809Z" stroke="#66FCF1" stroke-width="3"/>
<path d="M328.809 154.25L340.5 134L352.191 154.25H328.809Z" stroke="#66FCF1" stroke-width="3"/>
<path d="M303.809 154.25L315.5 134L327.191 154.25H303.809Z" stroke="#66FCF1" stroke-width="3"/>
<path d="M278.809 154.25L290.5 134L302.191 154.25H278.809Z" stroke="#66FCF1" stroke-width="3"/>
<path d="M250.809 154.25L262.5 134L274.191 154.25H250.809Z" stroke="#66FCF1" stroke-width="3"/>
<path d="M45.8087 154.25L57.5 134L69.1913 154.25H45.8087Z" stroke="#66FCF1" stroke-width="3"/>
<path d="M70.8087 154.25L82.5 134L94.1913 154.25H70.8087Z" stroke="#66FCF1" stroke-width="3"/>
<path d="M173.809 154.25L185.5 134L197.191 154.25H173.809Z" stroke="#66FCF1" stroke-width="3"/>
<path d="M148.809 154.25L160.5 134L172.191 154.25H148.809Z" stroke="#66FCF1" stroke-width="3"/>
<path d="M123.809 154.25L135.5 134L147.191 154.25H123.809Z" stroke="#66FCF1" stroke-width="3"/>
<path d="M95.8087 154.25L107.5 134L119.191 154.25H95.8087Z" stroke="#66FCF1" stroke-width="3"/>
<path d="M355.809 154.25L367.5 134L379.191 154.25H355.809Z" stroke="#66FCF1" stroke-width="3"/>
<path d="M380.809 154.25L392.5 134L404.191 154.25H380.809Z" stroke="#66FCF1" stroke-width="3"/>
<path d="M483.809 154.25L495.5 134L507.191 154.25H483.809Z" stroke="#66FCF1" stroke-width="3"/>
<path d="M458.809 154.25L470.5 134L482.191 154.25H458.809Z" stroke="#66FCF1" stroke-width="3"/>
<path d="M433.809 154.25L445.5 134L457.191 154.25H433.809Z" stroke="#66FCF1" stroke-width="3"/>
<path d="M405.809 154.25L417.5 134L429.191 154.25H405.809Z" stroke="#66FCF1" stroke-width="3"/>
<path d="M200.809 154.25L212.5 134L224.191 154.25H200.809Z" stroke="#66FCF1" stroke-width="3"/>
<path d="M225.809 154.25L237.5 134L249.191 154.25H225.809Z" stroke="#66FCF1" stroke-width="3"/>
<path d="M328.809 154.25L340.5 134L352.191 154.25H328.809Z" stroke="#66FCF1" stroke-width="3"/>
<path d="M303.809 154.25L315.5 134L327.191 154.25H303.809Z" stroke="#66FCF1" stroke-width="3"/>
<path d="M278.809 154.25L290.5 134L302.191 154.25H278.809Z" stroke="#66FCF1" stroke-width="3"/>
<path d="M250.809 154.25L262.5 134L274.191 154.25H250.809Z" stroke="#66FCF1" stroke-width="3"/>
<path d="M45.8087 154.25L57.5 134L69.1913 154.25H45.8087Z" stroke="#66FCF1" stroke-width="3"/>
<path d="M70.8087 154.25L82.5 134L94.1913 154.25H70.8087Z" stroke="#66FCF1" stroke-width="3"/>
<path d="M173.809 154.25L185.5 134L197.191 154.25H173.809Z" stroke="#66FCF1" stroke-width="3"/>
<path d="M148.809 154.25L160.5 134L172.191 154.25H148.809Z" stroke="#66FCF1" stroke-width="3"/>
<path d="M123.809 154.25L135.5 134L147.191 154.25H123.809Z" stroke="#66FCF1" stroke-width="3"/>
<path d="M95.8087 154.25L107.5 134L119.191 154.25H95.8087Z" stroke="#66FCF1" stroke-width="3"/>
<path d="M358.809 132.25L370.5 112L382.191 132.25H358.809Z" stroke="#66FCF1" stroke-width="3"/>
<path d="M383.809 132.25L395.5 112L407.191 132.25H383.809Z" stroke="#66FCF1" stroke-width="3"/>
<path d="M486.809 132.25L498.5 112L510.191 132.25H486.809Z" stroke="#66FCF1" stroke-width="3"/>
<path d="M461.809 132.25L473.5 112L485.191 132.25H461.809Z" stroke="#66FCF1" stroke-width="3"/>
<path d="M436.809 132.25L448.5 112L460.191 132.25H436.809Z" stroke="#66FCF1" stroke-width="3"/>
<path d="M408.809 132.25L420.5 112L432.191 132.25H408.809Z" stroke="#66FCF1" stroke-width="3"/>
<path d="M206.809 132.25L218.5 112L230.191 132.25H206.809Z" stroke="#66FCF1" stroke-width="3"/>
<path d="M231.809 132.25L243.5 112L255.191 132.25H231.809Z" stroke="#66FCF1" stroke-width="3"/>
<path d="M334.809 132.25L346.5 112L358.191 132.25H334.809Z" stroke="#66FCF1" stroke-width="3"/>
<path d="M309.809 132.25L321.5 112L333.191 132.25H309.809Z" stroke="#66FCF1" stroke-width="3"/>
<path d="M284.809 132.25L296.5 112L308.191 132.25H284.809Z" stroke="#66FCF1" stroke-width="3"/>
<path d="M256.809 132.25L268.5 112L280.191 132.25H256.809Z" stroke="#66FCF1" stroke-width="3"/>
<path d="M58.8087 132.25L70.5 112L82.1913 132.25H58.8087Z" stroke="#66FCF1" stroke-width="3"/>
<path d="M83.8087 132.25L95.5 112L107.191 132.25H83.8087Z" stroke="#66FCF1" stroke-width="3"/>
<path d="M186.809 132.25L198.5 112L210.191 132.25H186.809Z" stroke="#66FCF1" stroke-width="3"/>
<path d="M161.809 132.25L173.5 112L185.191 132.25H161.809Z" stroke="#66FCF1" stroke-width="3"/>
<path d="M136.809 132.25L148.5 112L160.191 132.25H136.809Z" stroke="#66FCF1" stroke-width="3"/>
<path d="M108.809 132.25L120.5 112L132.191 132.25H108.809Z" stroke="#66FCF1" stroke-width="3"/>
<path d="M341.809 175.25L353.5 155L365.191 175.25H341.809Z" stroke="#66FCF1" stroke-width="3"/>
<path d="M366.809 175.25L378.5 155L390.191 175.25H366.809Z" stroke="#66FCF1" stroke-width="3"/>
<path d="M469.809 175.25L481.5 155L493.191 175.25H469.809Z" stroke="#66FCF1" stroke-width="3"/>
<path d="M444.809 175.25L456.5 155L468.191 175.25H444.809Z" stroke="#66FCF1" stroke-width="3"/>
<path d="M419.809 175.25L431.5 155L443.191 175.25H419.809Z" stroke="#66FCF1" stroke-width="3"/>
<path d="M391.809 175.25L403.5 155L415.191 175.25H391.809Z" stroke="#66FCF1" stroke-width="3"/>
<path d="M186.809 175.25L198.5 155L210.191 175.25H186.809Z" stroke="#66FCF1" stroke-width="3"/>
<path d="M211.809 175.25L223.5 155L235.191 175.25H211.809Z" stroke="#66FCF1" stroke-width="3"/>
<path d="M314.809 175.25L326.5 155L338.191 175.25H314.809Z" stroke="#66FCF1" stroke-width="3"/>
<path d="M289.809 175.25L301.5 155L313.191 175.25H289.809Z" stroke="#66FCF1" stroke-width="3"/>
<path d="M264.809 175.25L276.5 155L288.191 175.25H264.809Z" stroke="#66FCF1" stroke-width="3"/>
<path d="M236.809 175.25L248.5 155L260.191 175.25H236.809Z" stroke="#66FCF1" stroke-width="3"/>
<path d="M31.8087 175.25L43.5 155L55.1913 175.25H31.8087Z" stroke="#66FCF1" stroke-width="3"/>
<path d="M56.8087 175.25L68.5 155L80.1913 175.25H56.8087Z" stroke="#66FCF1" stroke-width="3"/>
<path d="M159.809 175.25L171.5 155L183.191 175.25H159.809Z" stroke="#66FCF1" stroke-width="3"/>
<path d="M134.809 175.25L146.5 155L158.191 175.25H134.809Z" stroke="#66FCF1" stroke-width="3"/>
<path d="M109.809 175.25L121.5 155L133.191 175.25H109.809Z" stroke="#66FCF1" stroke-width="3"/>
<path d="M81.8087 175.25L93.5 155L105.191 175.25H81.8087Z" stroke="#66FCF1" stroke-width="3"/>
<path d="M314.809 220.25L326.5 200L338.191 220.25H314.809Z" stroke="#66FCF1" stroke-width="3"/>
<path d="M339.809 220.25L351.5 200L363.191 220.25H339.809Z" stroke="#66FCF1" stroke-width="3"/>
<path d="M442.809 220.25L454.5 200L466.191 220.25H442.809Z" stroke="#66FCF1" stroke-width="3"/>
<path d="M417.809 220.25L429.5 200L441.191 220.25H417.809Z" stroke="#66FCF1" stroke-width="3"/>
<path d="M392.809 220.25L404.5 200L416.191 220.25H392.809Z" stroke="#66FCF1" stroke-width="3"/>
<path d="M364.809 220.25L376.5 200L388.191 220.25H364.809Z" stroke="#66FCF1" stroke-width="3"/>
<path d="M159.809 220.25L171.5 200L183.191 220.25H159.809Z" stroke="#66FCF1" stroke-width="3"/>
<path d="M184.809 220.25L196.5 200L208.191 220.25H184.809Z" stroke="#66FCF1" stroke-width="3"/>
<path d="M287.809 220.25L299.5 200L311.191 220.25H287.809Z" stroke="#66FCF1" stroke-width="3"/>
<path d="M262.809 220.25L274.5 200L286.191 220.25H262.809Z" stroke="#66FCF1" stroke-width="3"/>
<path d="M237.809 220.25L249.5 200L261.191 220.25H237.809Z" stroke="#66FCF1" stroke-width="3"/>
<path d="M209.809 220.25L221.5 200L233.191 220.25H209.809Z" stroke="#66FCF1" stroke-width="3"/>
<path d="M71.8087 111.25L83.5 91L95.1913 111.25H71.8087Z" stroke="#66FCF1" stroke-width="3"/>
<path d="M96.8087 111.25L108.5 91L120.191 111.25H96.8087Z" stroke="#66FCF1" stroke-width="3"/>
<path d="M199.809 111.25L211.5 91L223.191 111.25H199.809Z" stroke="#66FCF1" stroke-width="3"/>
<path d="M174.809 111.25L186.5 91L198.191 111.25H174.809Z" stroke="#66FCF1" stroke-width="3"/>
<path d="M149.809 111.25L161.5 91L173.191 111.25H149.809Z" stroke="#66FCF1" stroke-width="3"/>
<path d="M121.809 111.25L133.5 91L145.191 111.25H121.809Z" stroke="#66FCF1" stroke-width="3"/>
<path d="M395.809 89.25L407.5 69L419.191 89.25H395.809Z" stroke="#66FCF1" stroke-width="3"/>
<path d="M420.809 89.25L432.5 69L444.191 89.25H420.809Z" stroke="#66FCF1" stroke-width="3"/>
<path d="M523.809 89.25L535.5 69L547.191 89.25H523.809Z" stroke="#66FCF1" stroke-width="3"/>
<path d="M498.809 89.25L510.5 69L522.191 89.25H498.809Z" stroke="#66FCF1" stroke-width="3"/>
<path d="M473.809 89.25L485.5 69L497.191 89.25H473.809Z" stroke="#66FCF1" stroke-width="3"/>
<path d="M445.809 89.25L457.5 69L469.191 89.25H445.809Z" stroke="#66FCF1" stroke-width="3"/>
<path d="M240.809 89.25L252.5 69L264.191 89.25H240.809Z" stroke="#66FCF1" stroke-width="3"/>
<path d="M265.809 89.25L277.5 69L289.191 89.25H265.809Z" stroke="#66FCF1" stroke-width="3"/>
<path d="M368.809 89.25L380.5 69L392.191 89.25H368.809Z" stroke="#66FCF1" stroke-width="3"/>
<path d="M343.809 89.25L355.5 69L367.191 89.25H343.809Z" stroke="#66FCF1" stroke-width="3"/>
<path d="M318.809 89.25L330.5 69L342.191 89.25H318.809Z" stroke="#66FCF1" stroke-width="3"/>
<path d="M290.809 89.25L302.5 69L314.191 89.25H290.809Z" stroke="#66FCF1" stroke-width="3"/>
<path d="M85.8087 89.25L97.5 69L109.191 89.25H85.8087Z" stroke="#66FCF1" stroke-width="3"/>
<path d="M110.809 89.25L122.5 69L134.191 89.25H110.809Z" stroke="#66FCF1" stroke-width="3"/>
<path d="M213.809 89.25L225.5 69L237.191 89.25H213.809Z" stroke="#66FCF1" stroke-width="3"/>
<path d="M188.809 89.25L200.5 69L212.191 89.25H188.809Z" stroke="#66FCF1" stroke-width="3"/>
<path d="M163.809 89.25L175.5 69L187.191 89.25H163.809Z" stroke="#66FCF1" stroke-width="3"/>
<path d="M135.809 89.25L147.5 69L159.191 89.25H135.809Z" stroke="#66FCF1" stroke-width="3"/>
<path d="M422.809 45.25L434.5 25L446.191 45.25H422.809Z" stroke="#66FCF1" stroke-width="3"/>
<path d="M447.809 45.25L459.5 25L471.191 45.25H447.809Z" stroke="#66FCF1" stroke-width="3"/>
<path d="M550.809 45.25L562.5 25L574.191 45.25H550.809Z" stroke="#66FCF1" stroke-width="3"/>
<path d="M525.809 45.25L537.5 25L549.191 45.25H525.809Z" stroke="#66FCF1" stroke-width="3"/>
<path d="M500.809 45.25L512.5 25L524.191 45.25H500.809Z" stroke="#66FCF1" stroke-width="3"/>
<path d="M472.809 45.25L484.5 25L496.191 45.25H472.809Z" stroke="#66FCF1" stroke-width="3"/>
<path d="M267.809 45.25L279.5 25L291.191 45.25H267.809Z" stroke="#66FCF1" stroke-width="3"/>
<path d="M292.809 45.25L304.5 25L316.191 45.25H292.809Z" stroke="#66FCF1" stroke-width="3"/>
<path d="M395.809 45.25L407.5 25L419.191 45.25H395.809Z" stroke="#66FCF1" stroke-width="3"/>
<path d="M370.809 45.25L382.5 25L394.191 45.25H370.809Z" stroke="#66FCF1" stroke-width="3"/>
<path d="M345.809 45.25L357.5 25L369.191 45.25H345.809Z" stroke="#66FCF1" stroke-width="3"/>
<path d="M317.809 45.25L329.5 25L341.191 45.25H317.809Z" stroke="#66FCF1" stroke-width="3"/>
<path d="M112.809 45.25L124.5 25L136.191 45.25H112.809Z" stroke="#66FCF1" stroke-width="3"/>
<path d="M137.809 45.25L149.5 25L161.191 45.25H137.809Z" stroke="#66FCF1" stroke-width="3"/>
<path d="M240.809 45.25L252.5 25L264.191 45.25H240.809Z" stroke="#66FCF1" stroke-width="3"/>
<path d="M215.809 45.25L227.5 25L239.191 45.25H215.809Z" stroke="#66FCF1" stroke-width="3"/>
<path d="M190.809 45.25L202.5 25L214.191 45.25H190.809Z" stroke="#66FCF1" stroke-width="3"/>
<path d="M162.809 45.25L174.5 25L186.191 45.25H162.809Z" stroke="#66FCF1" stroke-width="3"/>
<path d="M422.809 45.25L434.5 25L446.191 45.25H422.809Z" stroke="#66FCF1" stroke-width="3"/>
<path d="M447.809 45.25L459.5 25L471.191 45.25H447.809Z" stroke="#66FCF1" stroke-width="3"/>
<path d="M550.809 45.25L562.5 25L574.191 45.25H550.809Z" stroke="#66FCF1" stroke-width="3"/>
<path d="M525.809 45.25L537.5 25L549.191 45.25H525.809Z" stroke="#66FCF1" stroke-width="3"/>
<path d="M500.809 45.25L512.5 25L524.191 45.25H500.809Z" stroke="#66FCF1" stroke-width="3"/>
<path d="M472.809 45.25L484.5 25L496.191 45.25H472.809Z" stroke="#66FCF1" stroke-width="3"/>
<path d="M267.809 45.25L279.5 25L291.191 45.25H267.809Z" stroke="#66FCF1" stroke-width="3"/>
<path d="M292.809 45.25L304.5 25L316.191 45.25H292.809Z" stroke="#66FCF1" stroke-width="3"/>
<path d="M395.809 45.25L407.5 25L419.191 45.25H395.809Z" stroke="#66FCF1" stroke-width="3"/>
<path d="M370.809 45.25L382.5 25L394.191 45.25H370.809Z" stroke="#66FCF1" stroke-width="3"/>
<path d="M345.809 45.25L357.5 25L369.191 45.25H345.809Z" stroke="#66FCF1" stroke-width="3"/>
<path d="M317.809 45.25L329.5 25L341.191 45.25H317.809Z" stroke="#66FCF1" stroke-width="3"/>
<path d="M112.809 45.25L124.5 25L136.191 45.25H112.809Z" stroke="#66FCF1" stroke-width="3"/>
<path d="M137.809 45.25L149.5 25L161.191 45.25H137.809Z" stroke="#66FCF1" stroke-width="3"/>
<path d="M240.809 45.25L252.5 25L264.191 45.25H240.809Z" stroke="#66FCF1" stroke-width="3"/>
<path d="M215.809 45.25L227.5 25L239.191 45.25H215.809Z" stroke="#66FCF1" stroke-width="3"/>
<path d="M190.809 45.25L202.5 25L214.191 45.25H190.809Z" stroke="#66FCF1" stroke-width="3"/>
<path d="M162.809 45.25L174.5 25L186.191 45.25H162.809Z" stroke="#66FCF1" stroke-width="3"/>
<path d="M422.809 45.25L434.5 25L446.191 45.25H422.809Z" stroke="#66FCF1" stroke-width="3"/>
<path d="M447.809 45.25L459.5 25L471.191 45.25H447.809Z" stroke="#66FCF1" stroke-width="3"/>
<path d="M550.809 45.25L562.5 25L574.191 45.25H550.809Z" stroke="#66FCF1" stroke-width="3"/>
<path d="M525.809 45.25L537.5 25L549.191 45.25H525.809Z" stroke="#66FCF1" stroke-width="3"/>
<path d="M500.809 45.25L512.5 25L524.191 45.25H500.809Z" stroke="#66FCF1" stroke-width="3"/>
<path d="M472.809 45.25L484.5 25L496.191 45.25H472.809Z" stroke="#66FCF1" stroke-width="3"/>
<path d="M267.809 45.25L279.5 25L291.191 45.25H267.809Z" stroke="#66FCF1" stroke-width="3"/>
<path d="M292.809 45.25L304.5 25L316.191 45.25H292.809Z" stroke="#66FCF1" stroke-width="3"/>
<path d="M395.809 45.25L407.5 25L419.191 45.25H395.809Z" stroke="#66FCF1" stroke-width="3"/>
<path d="M370.809 45.25L382.5 25L394.191 45.25H370.809Z" stroke="#66FCF1" stroke-width="3"/>
<path d="M345.809 45.25L357.5 25L369.191 45.25H345.809Z" stroke="#66FCF1" stroke-width="3"/>
<path d="M317.809 45.25L329.5 25L341.191 45.25H317.809Z" stroke="#66FCF1" stroke-width="3"/>
<path d="M112.809 45.25L124.5 25L136.191 45.25H112.809Z" stroke="#66FCF1" stroke-width="3"/>
<path d="M137.809 45.25L149.5 25L161.191 45.25H137.809Z" stroke="#66FCF1" stroke-width="3"/>
<path d="M240.809 45.25L252.5 25L264.191 45.25H240.809Z" stroke="#66FCF1" stroke-width="3"/>
<path d="M215.809 45.25L227.5 25L239.191 45.25H215.809Z" stroke="#66FCF1" stroke-width="3"/>
<path d="M190.809 45.25L202.5 25L214.191 45.25H190.809Z" stroke="#66FCF1" stroke-width="3"/>
<path d="M162.809 45.25L174.5 25L186.191 45.25H162.809Z" stroke="#66FCF1" stroke-width="3"/>
<path d="M422.809 45.25L434.5 25L446.191 45.25H422.809Z" stroke="#66FCF1" stroke-width="3"/>
<path d="M447.809 45.25L459.5 25L471.191 45.25H447.809Z" stroke="#66FCF1" stroke-width="3"/>
<path d="M550.809 45.25L562.5 25L574.191 45.25H550.809Z" stroke="#66FCF1" stroke-width="3"/>
<path d="M525.809 45.25L537.5 25L549.191 45.25H525.809Z" stroke="#66FCF1" stroke-width="3"/>
<path d="M500.809 45.25L512.5 25L524.191 45.25H500.809Z" stroke="#66FCF1" stroke-width="3"/>
<path d="M472.809 45.25L484.5 25L496.191 45.25H472.809Z" stroke="#66FCF1" stroke-width="3"/>
<path d="M267.809 45.25L279.5 25L291.191 45.25H267.809Z" stroke="#66FCF1" stroke-width="3"/>
<path d="M292.809 45.25L304.5 25L316.191 45.25H292.809Z" stroke="#66FCF1" stroke-width="3"/>
<path d="M395.809 45.25L407.5 25L419.191 45.25H395.809Z" stroke="#66FCF1" stroke-width="3"/>
<path d="M370.809 45.25L382.5 25L394.191 45.25H370.809Z" stroke="#66FCF1" stroke-width="3"/>
<path d="M345.809 45.25L357.5 25L369.191 45.25H345.809Z" stroke="#66FCF1" stroke-width="3"/>
<path d="M317.809 45.25L329.5 25L341.191 45.25H317.809Z" stroke="#66FCF1" stroke-width="3"/>
<path d="M112.809 45.25L124.5 25L136.191 45.25H112.809Z" stroke="#66FCF1" stroke-width="3"/>
<path d="M137.809 45.25L149.5 25L161.191 45.25H137.809Z" stroke="#66FCF1" stroke-width="3"/>
<path d="M240.809 45.25L252.5 25L264.191 45.25H240.809Z" stroke="#66FCF1" stroke-width="3"/>
<path d="M215.809 45.25L227.5 25L239.191 45.25H215.809Z" stroke="#66FCF1" stroke-width="3"/>
<path d="M190.809 45.25L202.5 25L214.191 45.25H190.809Z" stroke="#66FCF1" stroke-width="3"/>
<path d="M162.809 45.25L174.5 25L186.191 45.25H162.809Z" stroke="#66FCF1" stroke-width="3"/>
<path d="M425.809 23.25L437.5 3L449.191 23.25H425.809Z" stroke="#66FCF1" stroke-width="3"/>
<path d="M450.809 23.25L462.5 3L474.191 23.25H450.809Z" stroke="#66FCF1" stroke-width="3"/>
<path d="M553.809 23.25L565.5 3L577.191 23.25H553.809Z" stroke="#66FCF1" stroke-width="3"/>
<path d="M528.809 23.25L540.5 3L552.191 23.25H528.809Z" stroke="#66FCF1" stroke-width="3"/>
<path d="M503.809 23.25L515.5 3L527.191 23.25H503.809Z" stroke="#66FCF1" stroke-width="3"/>
<path d="M475.809 23.25L487.5 3L499.191 23.25H475.809Z" stroke="#66FCF1" stroke-width="3"/>
<path d="M273.809 23.25L285.5 3L297.191 23.25H273.809Z" stroke="#66FCF1" stroke-width="3"/>
<path d="M298.809 23.25L310.5 3L322.191 23.25H298.809Z" stroke="#66FCF1" stroke-width="3"/>
<path d="M401.809 23.25L413.5 3L425.191 23.25H401.809Z" stroke="#66FCF1" stroke-width="3"/>
<path d="M376.809 23.25L388.5 3L400.191 23.25H376.809Z" stroke="#66FCF1" stroke-width="3"/>
<path d="M351.809 23.25L363.5 3L375.191 23.25H351.809Z" stroke="#66FCF1" stroke-width="3"/>
<path d="M323.809 23.25L335.5 3L347.191 23.25H323.809Z" stroke="#66FCF1" stroke-width="3"/>
<path d="M125.809 23.25L137.5 3L149.191 23.25H125.809Z" stroke="#66FCF1" stroke-width="3"/>
<path d="M150.809 23.25L162.5 3L174.191 23.25H150.809Z" stroke="#66FCF1" stroke-width="3"/>
<path d="M253.809 23.25L265.5 3L277.191 23.25H253.809Z" stroke="#66FCF1" stroke-width="3"/>
<path d="M228.809 23.25L240.5 3L252.191 23.25H228.809Z" stroke="#66FCF1" stroke-width="3"/>
<path d="M203.809 23.25L215.5 3L227.191 23.25H203.809Z" stroke="#66FCF1" stroke-width="3"/>
<path d="M175.809 23.25L187.5 3L199.191 23.25H175.809Z" stroke="#66FCF1" stroke-width="3"/>
<path d="M408.809 66.25L420.5 46L432.191 66.25H408.809Z" stroke="#66FCF1" stroke-width="3"/>
<path d="M433.809 66.25L445.5 46L457.191 66.25H433.809Z" stroke="#66FCF1" stroke-width="3"/>
<path d="M536.809 66.25L548.5 46L560.191 66.25H536.809Z" stroke="#66FCF1" stroke-width="3"/>
<path d="M511.809 66.25L523.5 46L535.191 66.25H511.809Z" stroke="#66FCF1" stroke-width="3"/>
<path d="M486.809 66.25L498.5 46L510.191 66.25H486.809Z" stroke="#66FCF1" stroke-width="3"/>
<path d="M458.809 66.25L470.5 46L482.191 66.25H458.809Z" stroke="#66FCF1" stroke-width="3"/>
<path d="M253.809 66.25L265.5 46L277.191 66.25H253.809Z" stroke="#66FCF1" stroke-width="3"/>
<path d="M278.809 66.25L290.5 46L302.191 66.25H278.809Z" stroke="#66FCF1" stroke-width="3"/>
<path d="M381.809 66.25L393.5 46L405.191 66.25H381.809Z" stroke="#66FCF1" stroke-width="3"/>
<path d="M356.809 66.25L368.5 46L380.191 66.25H356.809Z" stroke="#66FCF1" stroke-width="3"/>
<path d="M331.809 66.25L343.5 46L355.191 66.25H331.809Z" stroke="#66FCF1" stroke-width="3"/>
<path d="M303.809 66.25L315.5 46L327.191 66.25H303.809Z" stroke="#66FCF1" stroke-width="3"/>
<path d="M98.8087 66.25L110.5 46L122.191 66.25H98.8087Z" stroke="#66FCF1" stroke-width="3"/>
<path d="M123.809 66.25L135.5 46L147.191 66.25H123.809Z" stroke="#66FCF1" stroke-width="3"/>
<path d="M226.809 66.25L238.5 46L250.191 66.25H226.809Z" stroke="#66FCF1" stroke-width="3"/>
<path d="M201.809 66.25L213.5 46L225.191 66.25H201.809Z" stroke="#66FCF1" stroke-width="3"/>
<path d="M176.809 66.25L188.5 46L200.191 66.25H176.809Z" stroke="#66FCF1" stroke-width="3"/>
<path d="M148.809 66.25L160.5 46L172.191 66.25H148.809Z" stroke="#66FCF1" stroke-width="3"/>
<path d="M381.809 111.25L393.5 91L405.191 111.25H381.809Z" stroke="#66FCF1" stroke-width="3"/>
<path d="M406.809 111.25L418.5 91L430.191 111.25H406.809Z" stroke="#66FCF1" stroke-width="3"/>
<path d="M509.809 111.25L521.5 91L533.191 111.25H509.809Z" stroke="#66FCF1" stroke-width="3"/>
<path d="M484.809 111.25L496.5 91L508.191 111.25H484.809Z" stroke="#66FCF1" stroke-width="3"/>
<path d="M459.809 111.25L471.5 91L483.191 111.25H459.809Z" stroke="#66FCF1" stroke-width="3"/>
<path d="M431.809 111.25L443.5 91L455.191 111.25H431.809Z" stroke="#66FCF1" stroke-width="3"/>
<path d="M226.809 111.25L238.5 91L250.191 111.25H226.809Z" stroke="#66FCF1" stroke-width="3"/>
<path d="M251.809 111.25L263.5 91L275.191 111.25H251.809Z" stroke="#66FCF1" stroke-width="3"/>
<path d="M354.809 111.25L366.5 91L378.191 111.25H354.809Z" stroke="#66FCF1" stroke-width="3"/>
<path d="M329.809 111.25L341.5 91L353.191 111.25H329.809Z" stroke="#66FCF1" stroke-width="3"/>
<path d="M304.809 111.25L316.5 91L328.191 111.25H304.809Z" stroke="#66FCF1" stroke-width="3"/>
<path d="M276.809 111.25L288.5 91L300.191 111.25H276.809Z" stroke="#66FCF1" stroke-width="3"/>
</svg>
