<svg width="785" height="80" viewBox="0 0 785 80" fill="none" xmlns="http://www.w3.org/2000/svg">
<path d="M2.38419e-07 49V44.6L48.6 18.5V26L10.3 46.8L48.6 67.5V75L2.38419e-07 49ZM80.8422 76C76.3089 76 72.0422 75.0333 68.0422 73.1C64.1089 71.1667 60.9422 68.5 58.5422 65.1L64.1422 59.5C66.2089 62.1667 68.8089 64.3333 71.9422 66C75.0755 67.6 78.1755 68.4 81.2422 68.4C85.1755 68.4 88.3422 67.4 90.7422 65.4C93.2089 63.4 94.4422 60.7667 94.4422 57.5C94.4422 55.3667 94.0089 53.5 93.1422 51.9C92.3422 50.3 90.9089 48.7667 88.8422 47.3C86.8422 45.7667 83.9755 44.1 80.2422 42.3C73.1089 38.8333 68.0755 35.5667 65.1422 32.5C62.2755 29.3667 60.8422 25.7333 60.8422 21.6C60.8422 16.2667 62.7755 12 66.6422 8.79999C70.5089 5.6 75.6422 4 82.0422 4C86.5089 4 90.5755 4.96666 94.2422 6.89999C97.9755 8.83333 100.676 11.4333 102.342 14.7L96.3422 19.1C94.7422 16.7667 92.6755 14.9333 90.1422 13.6C87.6089 12.2667 84.9422 11.6 82.1422 11.6C78.4089 11.6 75.4422 12.5 73.2422 14.3C71.1089 16.0333 70.0422 18.4 70.0422 21.4C70.0422 23.2 70.4422 24.7333 71.2422 26C72.0422 27.2667 73.5089 28.6 75.6422 30C77.8422 31.3333 81.2755 33.1667 85.9422 35.5C92.2755 38.6333 96.8089 41.8667 99.5422 45.2C102.276 48.4667 103.642 52.3333 103.642 56.8C103.642 60.6 102.676 63.9667 100.742 66.9C98.8755 69.7667 96.2089 72 92.7422 73.6C89.3422 75.2 85.3755 76 80.8422 76ZM134.472 76C127.072 76 121.305 73.7333 117.172 69.2C113.105 64.6 111.072 58.2 111.072 50C111.072 41.8 113.105 35.4333 117.172 30.9C121.305 26.3 127.072 24 134.472 24C138.672 24 142.372 24.8333 145.572 26.5C148.839 28.1 151.405 30.4333 153.272 33.5L148.172 38.1C146.705 35.8333 144.772 34.0667 142.372 32.8C140.039 31.4667 137.505 30.8 134.772 30.8C130.039 30.8 126.305 32.5 123.572 35.9C120.905 39.2333 119.572 43.9333 119.572 50C119.572 56 120.905 60.7 123.572 64.1C126.305 67.5 130.039 69.2 134.772 69.2C137.505 69.2 140.039 68.5667 142.372 67.3C144.772 65.9667 146.705 64.1667 148.172 61.9L153.272 66.5C151.405 69.5667 148.839 71.9333 145.572 73.6C142.372 75.2 138.672 76 134.472 76ZM203.138 53.3H167.138C167.604 58.3667 169.104 62.2333 171.638 64.9C174.171 67.5 177.671 68.8 182.138 68.8C188.138 68.8 192.904 66.4333 196.438 61.7L201.238 66.3C199.304 69.3667 196.604 71.7667 193.138 73.5C189.738 75.1667 185.971 76 181.838 76C174.438 76 168.704 73.7333 164.638 69.2C160.571 64.6667 158.538 58.3 158.538 50.1C158.538 41.9667 160.571 35.6 164.638 31C168.771 26.3333 174.438 24 181.638 24C188.371 24 193.638 26.3 197.438 30.9C201.238 35.4333 203.138 41.8 203.138 50V53.3ZM195.338 46.3C195.338 41.5 194.071 37.7333 191.538 35C189.071 32.2667 185.638 30.9 181.238 30.9C177.104 30.9 173.804 32.3 171.338 35.1C168.938 37.9 167.538 41.8667 167.138 47H195.338V46.3ZM212.695 37.6C212.695 31.2667 212.562 27.0667 212.295 25H220.195C220.462 27.2 220.595 30.1667 220.595 33.9H220.895C222.362 30.8333 224.595 28.4333 227.595 26.7C230.662 24.9 234.062 24 237.795 24C243.662 24 248.062 25.9 250.995 29.7C253.929 33.5 255.395 39.1667 255.395 46.7V75H246.895V46.6C246.895 41.2667 245.995 37.3 244.195 34.7C242.395 32.1 239.662 30.8 235.995 30.8C233.195 30.8 230.662 31.5333 228.395 33C226.129 34.4 224.362 36.4 223.095 39C221.829 41.5333 221.195 44.4 221.195 47.6V75H212.695V37.6ZM309.778 53.3H273.778C274.245 58.3667 275.745 62.2333 278.278 64.9C280.811 67.5 284.311 68.8 288.778 68.8C294.778 68.8 299.545 66.4333 303.078 61.7L307.878 66.3C305.945 69.3667 303.245 71.7667 299.778 73.5C296.378 75.1667 292.611 76 288.478 76C281.078 76 275.345 73.7333 271.278 69.2C267.211 64.6667 265.178 58.3 265.178 50.1C265.178 41.9667 267.211 35.6 271.278 31C275.411 26.3333 281.078 24 288.278 24C295.011 24 300.278 26.3 304.078 30.9C307.878 35.4333 309.778 41.8 309.778 50V53.3ZM301.978 46.3C301.978 41.5 300.711 37.7333 298.178 35C295.711 32.2667 292.278 30.9 287.878 30.9C283.745 30.9 280.445 32.3 277.978 35.1C275.578 37.9 274.178 41.8667 273.778 47H301.978V46.3ZM367.452 76C364.319 76 361.286 75.2 358.352 73.6C355.419 71.9333 353.219 69.7667 351.752 67.1H351.552C351.619 69.2333 351.552 71.8667 351.352 75H343.552C343.752 72.8 343.852 68.6 343.852 62.4V0.799996H352.352V31.7H352.552C355.886 26.5667 360.919 24 367.652 24C374.052 24 379.119 26.2667 382.852 30.8C386.586 35.2667 388.452 41.3667 388.452 49.1C388.452 57.4333 386.552 64 382.752 68.8C379.019 73.6 373.919 76 367.452 76ZM366.252 69.2C370.519 69.2 373.852 67.4333 376.252 63.9C378.719 60.3667 379.952 55.5 379.952 49.3C379.952 43.3667 378.719 38.7667 376.252 35.5C373.852 32.1667 370.519 30.5 366.252 30.5C362.119 30.5 358.752 31.9333 356.152 34.8C353.619 37.6 352.352 41.3 352.352 45.9V55C352.352 59.3333 353.586 62.8 356.052 65.4C358.586 67.9333 361.986 69.2 366.252 69.2ZM415.452 76C409.718 76 405.352 74.1333 402.352 70.4C399.418 66.6667 397.952 61.1667 397.952 53.9V25H406.452V54C406.452 64.1333 410.052 69.2 417.252 69.2C420.052 69.2 422.585 68.5 424.852 67.1C427.118 65.6333 428.885 63.6333 430.152 61.1C431.418 58.5 432.052 55.6 432.052 52.4V25H440.552V64.4C440.552 67.7333 440.852 71.2667 441.452 75H433.652C433.052 72.0667 432.718 69.1 432.652 66.1H432.352C430.885 69.1667 428.618 71.6 425.552 73.4C422.552 75.1333 419.185 76 415.452 76ZM459.227 16.3C457.361 16.3 455.894 15.8 454.827 14.8C453.761 13.8 453.227 12.4333 453.227 10.7C453.227 8.96666 453.761 7.6 454.827 6.6C455.894 5.53333 457.361 5 459.227 5C461.094 5 462.561 5.53333 463.627 6.6C464.761 7.6 465.327 8.96666 465.327 10.7C465.327 12.4333 464.761 13.8 463.627 14.8C462.561 15.8 461.094 16.3 459.227 16.3ZM455.027 25H463.527V75H455.027V25ZM489.339 76C482.139 76 478.539 71.7667 478.539 63.3V0.799996H487.039V63.2C487.039 65.5333 487.406 67.2 488.139 68.2C488.939 69.1333 490.272 69.6 492.139 69.6C493.606 69.6 495.272 69.2 497.139 68.4L498.439 73.5C495.906 75.1667 492.872 76 489.339 76ZM523.088 76C516.621 76 511.488 73.6 507.688 68.8C503.954 64 502.088 57.4333 502.088 49.1C502.088 44.0333 502.954 39.6333 504.688 35.9C506.421 32.1 508.888 29.1667 512.088 27.1C515.288 25.0333 519.021 24 523.288 24C529.421 24 534.354 26.5667 538.088 31.7H538.288V0.799996H546.688V62.4C546.688 68.6 546.788 72.8 546.988 75H539.188C539.054 73.4 538.988 70.7667 538.988 67.1H538.788C537.254 69.7667 535.054 71.9333 532.188 73.6C529.321 75.2 526.288 76 523.088 76ZM524.288 69.2C528.554 69.2 531.921 67.9333 534.388 65.4C536.921 62.8 538.188 59.3333 538.188 55V45.9C538.188 41.2333 536.921 37.5 534.388 34.7C531.854 31.9 528.488 30.5 524.288 30.5C520.021 30.5 516.654 32.1667 514.188 35.5C511.788 38.7667 510.588 43.3667 510.588 49.3C510.588 55.5 511.788 60.3667 514.188 63.9C516.654 67.4333 520.021 69.2 524.288 69.2ZM601.087 53.3H565.087C565.553 58.3667 567.053 62.2333 569.587 64.9C572.12 67.5 575.62 68.8 580.087 68.8C586.087 68.8 590.853 66.4333 594.387 61.7L599.187 66.3C597.253 69.3667 594.553 71.7667 591.087 73.5C587.687 75.1667 583.92 76 579.787 76C572.387 76 566.653 73.7333 562.587 69.2C558.52 64.6667 556.487 58.3 556.487 50.1C556.487 41.9667 558.52 35.6 562.587 31C566.72 26.3333 572.387 24 579.587 24C586.32 24 591.587 26.3 595.387 30.9C599.187 35.4333 601.087 41.8 601.087 50V53.3ZM593.287 46.3C593.287 41.5 592.02 37.7333 589.487 35C587.02 32.2667 583.587 30.9 579.187 30.9C575.053 30.9 571.753 32.3 569.287 35.1C566.887 37.9 565.487 41.8667 565.087 47H593.287V46.3ZM611.345 37.2C611.345 31.5333 611.245 27.4667 611.045 25H618.945C619.211 27.6667 619.345 30.6 619.345 33.8V34.8H619.645C620.911 31.3333 622.945 28.6667 625.745 26.8C628.545 24.9333 631.845 24 635.645 24C636.711 24 637.678 24.1 638.545 24.3V31.3C637.678 31.1 636.511 31 635.045 31C632.245 31 629.678 31.8667 627.345 33.6C625.011 35.2667 623.178 37.5667 621.845 40.5C620.511 43.4333 619.845 46.6333 619.845 50.1V75H611.345V37.2ZM723.838 2.5H732.138L694.138 79.3H685.838L723.838 2.5ZM735.742 67.5L774.042 46.8L735.742 26V18.5L784.342 44.6V49L735.742 75V67.5Z" fill="#66FCF1"/>
</svg>
