<svg width="809" height="80" viewBox="0 0 809 80" fill="none" xmlns="http://www.w3.org/2000/svg">
<path d="M2.38419e-07 49V44.6L48.6 18.5V26L10.3 46.8L48.6 67.5V75L2.38419e-07 49ZM78.0422 12.2H56.4422V5H108.742V12.2H87.2422V75H78.0422V12.2ZM150.696 53.3H114.696C115.163 58.3667 116.663 62.2333 119.196 64.9C121.729 67.5 125.229 68.8 129.696 68.8C135.696 68.8 140.463 66.4333 143.996 61.7L148.796 66.3C146.863 69.3667 144.163 71.7667 140.696 73.5C137.296 75.1667 133.529 76 129.396 76C121.996 76 116.263 73.7333 112.196 69.2C108.129 64.6667 106.096 58.3 106.096 50.1C106.096 41.9667 108.129 35.6 112.196 31C116.329 26.3333 121.996 24 129.196 24C135.929 24 141.196 26.3 144.996 30.9C148.796 35.4333 150.696 41.8 150.696 50V53.3ZM142.896 46.3C142.896 41.5 141.629 37.7333 139.096 35C136.629 32.2667 133.196 30.9 128.796 30.9C124.663 30.9 121.363 32.3 118.896 35.1C116.496 37.9 115.096 41.8667 114.696 47H142.896V46.3ZM181.054 76C173.654 76 167.887 73.7333 163.754 69.2C159.687 64.6 157.654 58.2 157.654 50C157.654 41.8 159.687 35.4333 163.754 30.9C167.887 26.3 173.654 24 181.054 24C185.254 24 188.954 24.8333 192.154 26.5C195.421 28.1 197.987 30.4333 199.854 33.5L194.754 38.1C193.287 35.8333 191.354 34.0667 188.954 32.8C186.621 31.4667 184.087 30.8 181.354 30.8C176.621 30.8 172.887 32.5 170.154 35.9C167.487 39.2333 166.154 43.9333 166.154 50C166.154 56 167.487 60.7 170.154 64.1C172.887 67.5 176.621 69.2 181.354 69.2C184.087 69.2 186.621 68.5667 188.954 67.3C191.354 65.9667 193.287 64.1667 194.754 61.9L199.854 66.5C197.987 69.5667 195.421 71.9333 192.154 73.6C188.954 75.2 185.254 76 181.054 76ZM207.62 0.799996H216.12V32.8C217.653 30.0667 219.886 27.9333 222.82 26.4C225.82 24.8 229.153 24 232.82 24C238.686 24 243.22 25.9667 246.42 29.9C249.62 33.7667 251.22 39.2667 251.22 46.4V75H242.72V46.3C242.72 41.1667 241.72 37.2667 239.72 34.6C237.786 31.8667 234.986 30.5 231.32 30.5C228.453 30.5 225.853 31.2333 223.52 32.7C221.186 34.1667 219.353 36.2333 218.02 38.9C216.753 41.5 216.12 44.4333 216.12 47.7V75H207.62V0.799996ZM263.281 37.6C263.281 31.2667 263.148 27.0667 262.881 25H270.781C271.048 27.2 271.181 30.1667 271.181 33.9H271.481C272.948 30.8333 275.181 28.4333 278.181 26.7C281.248 24.9 284.648 24 288.381 24C294.248 24 298.648 25.9 301.581 29.7C304.515 33.5 305.981 39.1667 305.981 46.7V75H297.481V46.6C297.481 41.2667 296.581 37.3 294.781 34.7C292.981 32.1 290.248 30.8 286.581 30.8C283.781 30.8 281.248 31.5333 278.981 33C276.715 34.4 274.948 36.4 273.681 39C272.415 41.5333 271.781 44.4 271.781 47.6V75H263.281V37.6ZM324.364 16.3C322.497 16.3 321.031 15.8 319.964 14.8C318.897 13.8 318.364 12.4333 318.364 10.7C318.364 8.96666 318.897 7.6 319.964 6.6C321.031 5.53333 322.497 5 324.364 5C326.231 5 327.697 5.53333 328.764 6.6C329.897 7.6 330.464 8.96666 330.464 10.7C330.464 12.4333 329.897 13.8 328.764 14.8C327.697 15.8 326.231 16.3 324.364 16.3ZM320.164 25H328.664V75H320.164V25ZM363.476 76C356.076 76 350.309 73.7333 346.176 69.2C342.109 64.6 340.076 58.2 340.076 50C340.076 41.8 342.109 35.4333 346.176 30.9C350.309 26.3 356.076 24 363.476 24C367.676 24 371.376 24.8333 374.576 26.5C377.842 28.1 380.409 30.4333 382.276 33.5L377.176 38.1C375.709 35.8333 373.776 34.0667 371.376 32.8C369.042 31.4667 366.509 30.8 363.776 30.8C359.042 30.8 355.309 32.5 352.576 35.9C349.909 39.2333 348.576 43.9333 348.576 50C348.576 56 349.909 60.7 352.576 64.1C355.309 67.5 359.042 69.2 363.776 69.2C366.509 69.2 369.042 68.5667 371.376 67.3C373.776 65.9667 375.709 64.1667 377.176 61.9L382.276 66.5C380.409 69.5667 377.842 71.9333 374.576 73.6C371.376 75.2 367.676 76 363.476 76ZM404.741 76C399.808 76 395.775 74.5667 392.641 71.7C389.508 68.8333 387.941 65.1333 387.941 60.6C387.941 55.6 389.808 51.7333 393.541 49C397.341 46.2667 402.708 44.9 409.641 44.9H419.941V42.3C419.941 38.5667 418.941 35.7333 416.941 33.8C415.008 31.8 412.175 30.8 408.441 30.8C405.441 30.8 402.675 31.4333 400.141 32.7C397.675 33.9 395.608 35.6667 393.941 38L389.641 32.8C391.908 29.9333 394.675 27.7667 397.941 26.3C401.208 24.7667 404.841 24 408.841 24C415.108 24 419.941 25.5333 423.341 28.6C426.741 31.6667 428.441 36.0667 428.441 41.8V65.3C428.441 67.9 428.841 71.1333 429.641 75H422.241C421.641 73.4667 421.208 71.1333 420.941 68H420.741C418.875 70.6 416.575 72.6 413.841 74C411.108 75.3333 408.075 76 404.741 76ZM406.041 69.3C408.575 69.3 410.908 68.8333 413.041 67.9C415.175 66.9 416.841 65.5667 418.041 63.9C419.308 62.2333 419.941 60.4 419.941 58.4V51H409.341C405.141 51 401.908 51.8333 399.641 53.5C397.375 55.1667 396.241 57.5333 396.241 60.6C396.241 63.2667 397.108 65.4 398.841 67C400.641 68.5333 403.041 69.3 406.041 69.3ZM453.109 76C445.909 76 442.309 71.7667 442.309 63.3V0.799996H450.809V63.2C450.809 65.5333 451.175 67.2 451.909 68.2C452.709 69.1333 454.042 69.6 455.909 69.6C457.375 69.6 459.042 69.2 460.909 68.4L462.209 73.5C459.675 75.1667 456.642 76 453.109 76ZM514.827 76C510.293 76 506.027 75.0333 502.027 73.1C498.093 71.1667 494.927 68.5 492.527 65.1L498.127 59.5C500.193 62.1667 502.793 64.3333 505.927 66C509.06 67.6 512.16 68.4 515.227 68.4C519.16 68.4 522.327 67.4 524.727 65.4C527.193 63.4 528.427 60.7667 528.427 57.5C528.427 55.3667 527.993 53.5 527.127 51.9C526.327 50.3 524.893 48.7667 522.827 47.3C520.827 45.7667 517.96 44.1 514.227 42.3C507.093 38.8333 502.06 35.5667 499.127 32.5C496.26 29.3667 494.827 25.7333 494.827 21.6C494.827 16.2667 496.76 12 500.627 8.79999C504.493 5.6 509.627 4 516.027 4C520.493 4 524.56 4.96666 528.227 6.89999C531.96 8.83333 534.66 11.4333 536.327 14.7L530.327 19.1C528.727 16.7667 526.66 14.9333 524.127 13.6C521.593 12.2667 518.927 11.6 516.127 11.6C512.393 11.6 509.427 12.5 507.227 14.3C505.093 16.0333 504.027 18.4 504.027 21.4C504.027 23.2 504.427 24.7333 505.227 26C506.027 27.2667 507.493 28.6 509.627 30C511.827 31.3333 515.26 33.1667 519.927 35.5C526.26 38.6333 530.793 41.8667 533.527 45.2C536.26 48.4667 537.627 52.3333 537.627 56.8C537.627 60.6 536.66 63.9667 534.727 66.9C532.86 69.7667 530.193 72 526.727 73.6C523.327 75.2 519.36 76 514.827 76ZM580.056 75L563.556 49.9L556.256 57.2V75H547.756V0.799996H556.256V47L578.156 25H588.356L569.256 44.2L589.756 75H580.056ZM602.587 16.3C600.72 16.3 599.253 15.8 598.187 14.8C597.12 13.8 596.587 12.4333 596.587 10.7C596.587 8.96666 597.12 7.6 598.187 6.6C599.253 5.53333 600.72 5 602.587 5C604.453 5 605.92 5.53333 606.987 6.6C608.12 7.6 608.687 8.96666 608.687 10.7C608.687 12.4333 608.12 13.8 606.987 14.8C605.92 15.8 604.453 16.3 602.587 16.3ZM598.387 25H606.887V75H598.387V25ZM632.698 76C625.498 76 621.898 71.7667 621.898 63.3V0.799996H630.398V63.2C630.398 65.5333 630.765 67.2 631.498 68.2C632.298 69.1333 633.632 69.6 635.498 69.6C636.965 69.6 638.632 69.2 640.498 68.4L641.798 73.5C639.265 75.1667 636.232 76 632.698 76ZM661.8 76C654.6 76 651 71.7667 651 63.3V0.799996H659.5V63.2C659.5 65.5333 659.867 67.2 660.6 68.2C661.4 69.1333 662.733 69.6 664.6 69.6C666.067 69.6 667.733 69.2 669.6 68.4L670.9 73.5C668.367 75.1667 665.333 76 661.8 76ZM691.148 76C687.415 76 684.015 75.2333 680.948 73.7C677.948 72.1667 675.815 70.1333 674.548 67.6L680.048 63.8C681.182 65.6 682.748 67 684.748 68C686.748 69 688.915 69.5 691.248 69.5C694.048 69.5 696.348 68.7 698.148 67.1C700.015 65.4333 700.948 63.3667 700.948 60.9C700.948 58.9 700.215 57.2333 698.748 55.9C697.282 54.5667 694.682 53.2 690.948 51.8C685.282 49.7333 681.282 47.5667 678.948 45.3C676.682 43.0333 675.548 40.2333 675.548 36.9C675.548 33.0333 677.082 29.9333 680.148 27.6C683.215 25.2 687.282 24 692.348 24C695.615 24 698.582 24.7 701.248 26.1C703.982 27.5 706.082 29.4333 707.548 31.9L702.348 35.7C700.015 32.2333 696.682 30.5 692.348 30.5C689.882 30.5 687.848 31.0667 686.248 32.2C684.715 33.3333 683.948 34.8 683.948 36.6C683.948 38.4 684.748 39.9333 686.348 41.2C687.948 42.4 690.915 43.8333 695.248 45.5C700.382 47.4333 704.015 49.5667 706.148 51.9C708.282 54.1667 709.348 57.0667 709.348 60.6C709.348 65.2667 707.682 69 704.348 71.8C701.015 74.6 696.615 76 691.148 76ZM748.35 2.5H756.65L718.65 79.3H710.35L748.35 2.5ZM760.254 67.5L798.554 46.8L760.254 26V18.5L808.854 44.6V49L760.254 75V67.5Z" fill="#66FCF1"/>
</svg>
