<svg width="266" height="27" viewBox="0 0 266 27" fill="none" xmlns="http://www.w3.org/2000/svg">
<path d="M13.1 19.7V16.7L3.38 14L13.1 11.3V8.3L0.5 12.2V15.8L13.1 19.7ZM15.5129 23L16.9529 17.93V14.12L19.1729 13.22L23.0729 1.79H30.8429L35.6729 15.23L37.9829 19.49V23H32.6729L31.1729 18.2H22.4429L21.1529 23H15.5129ZM24.4229 13.58H29.5229L27.2429 6.71H26.6129L24.4229 13.58ZM40.0695 23V13.97L39.4695 10.67L40.3995 8.84H44.8695V10.13L45.1395 10.31C45.3595 10.11 45.6595 9.88 46.0395 9.62C46.4395 9.34 46.9195 9.09 47.4795 8.87C48.0395 8.65 48.6695 8.54 49.3695 8.54C51.1695 8.54 52.5195 9.05 53.4195 10.07C54.3195 11.09 54.7695 12.52 54.7695 14.36V18.17L55.3995 21.17L54.7695 23H49.3695V15.14C49.3695 14.38 49.1995 13.8 48.8595 13.4C48.5395 12.98 48.0295 12.77 47.3295 12.77L45.4695 13.34V23H40.0695ZM62.9422 23.3C62.0022 23.3 61.0922 23.06 60.2122 22.58C59.3522 22.1 58.6422 21.34 58.0822 20.3C57.5222 19.26 57.2422 17.9 57.2422 16.22C57.2422 14.36 57.5122 12.87 58.0522 11.75C58.6122 10.63 59.3322 9.82 60.2122 9.32C61.0922 8.8 62.0022 8.54 62.9422 8.54C64.3622 8.54 65.3622 8.66 65.9422 8.9C66.5422 9.14 66.8422 9.26 66.8422 9.26L66.5422 3.59L66.8422 1.79H72.2722V18.2L72.8722 21.2L72.2722 23.03H67.1422V21.56L66.8422 21.41C66.8422 21.41 66.6922 21.57 66.3922 21.89C66.0922 22.19 65.6522 22.5 65.0722 22.82C64.4922 23.14 63.7822 23.3 62.9422 23.3ZM65.1922 19.07L66.8422 18.65V14.27C66.8422 13.81 66.6922 13.45 66.3922 13.19C66.0922 12.91 65.6922 12.77 65.1922 12.77C64.4522 12.77 63.8922 13.02 63.5122 13.52C63.1322 14 62.9422 14.8 62.9422 15.92C62.9422 17.02 63.1622 17.82 63.6022 18.32C64.0422 18.82 64.5722 19.07 65.1922 19.07ZM75.9003 23V13.61L75.2703 10.61L75.9003 8.81H79.9803L80.5803 9.5C80.5803 9.5 80.7203 9.42 81.0003 9.26C81.2803 9.08 81.6703 8.91 82.1703 8.75C82.6903 8.59 83.2903 8.51 83.9703 8.51C84.3703 8.51 84.7703 8.54 85.1703 8.6C85.5703 8.66 85.8803 8.74 86.1003 8.84L88.0503 10.49L86.1003 14.33L82.1403 12.68L81.2403 12.98V23H75.9003ZM95.5667 23.3C93.1267 23.3 91.2367 22.72 89.8967 21.56C88.5567 20.4 87.8867 18.52 87.8867 15.92C87.8867 13.3 88.5567 11.42 89.8967 10.28C91.2367 9.12 93.1267 8.54 95.5667 8.54C98.0667 8.54 99.9567 9.12 101.237 10.28C102.537 11.42 103.187 13.3 103.187 15.92C103.187 18.52 102.537 20.4 101.237 21.56C99.9567 22.72 98.0667 23.3 95.5667 23.3ZM95.5667 19.4C96.3867 19.4 96.9567 19.1 97.2767 18.5C97.5967 17.88 97.7567 17.02 97.7567 15.92C97.7567 14.8 97.5967 13.94 97.2767 13.34C96.9567 12.74 96.3867 12.44 95.5667 12.44C94.7267 12.44 94.1367 12.74 93.7967 13.34C93.4767 13.94 93.3167 14.8 93.3167 15.92C93.3167 17.02 93.4767 17.88 93.7967 18.5C94.1367 19.1 94.7267 19.4 95.5667 19.4ZM108.424 7.97L104.614 4.13L108.424 0.319999L112.234 4.13L108.424 7.97ZM105.724 23V13.07L105.094 10.67L105.694 8.84H111.124V23H105.724ZM119.134 23.3C118.194 23.3 117.284 23.06 116.404 22.58C115.544 22.1 114.834 21.34 114.274 20.3C113.714 19.26 113.434 17.9 113.434 16.22C113.434 14.36 113.704 12.87 114.244 11.75C114.804 10.63 115.524 9.82 116.404 9.32C117.284 8.8 118.194 8.54 119.134 8.54C120.554 8.54 121.554 8.66 122.134 8.9C122.734 9.14 123.034 9.26 123.034 9.26L122.734 3.59L123.034 1.79H128.464V18.2L129.064 21.2L128.464 23.03H123.334V21.56L123.034 21.41C123.034 21.41 122.884 21.57 122.584 21.89C122.284 22.19 121.844 22.5 121.264 22.82C120.684 23.14 119.974 23.3 119.134 23.3ZM121.384 19.07L123.034 18.65V14.27C123.034 13.81 122.884 13.45 122.584 13.19C122.284 12.91 121.884 12.77 121.384 12.77C120.644 12.77 120.084 13.02 119.704 13.52C119.324 14 119.134 14.8 119.134 15.92C119.134 17.02 119.354 17.82 119.794 18.32C120.234 18.82 120.764 19.07 121.384 19.07ZM146.769 23.3C145.669 23.3 144.629 23.2 143.649 23C142.669 22.78 141.819 22.52 141.099 22.22C140.379 21.92 139.849 21.64 139.509 21.38V16.01C140.469 16.55 141.679 17.06 143.139 17.54C144.599 18 146.219 18.23 147.999 18.23C148.719 18.23 149.249 18.14 149.589 17.96C149.949 17.76 150.129 17.42 150.129 16.94C150.129 16.42 149.729 15.99 148.929 15.65C148.149 15.29 146.909 14.85 145.209 14.33C143.889 13.91 142.759 13.45 141.819 12.95C140.899 12.43 140.189 11.79 139.689 11.03C139.209 10.25 138.969 9.26 138.969 8.06C138.969 6.82 139.289 5.7 139.929 4.7C140.569 3.7 141.569 2.91 142.929 2.33C144.289 1.75 146.029 1.46 148.149 1.46C148.789 1.46 149.469 1.49 150.189 1.55C150.929 1.59 151.519 1.65 151.959 1.73L155.349 4.22L154.179 7.88L147.069 5.93C146.249 5.93 145.639 6.1 145.239 6.44C144.859 6.78 144.669 7.19 144.669 7.67C144.669 8.25 144.999 8.71 145.659 9.05C146.319 9.39 147.269 9.73 148.509 10.07C150.469 10.61 151.989 11.21 153.069 11.87C154.149 12.53 154.909 13.28 155.349 14.12C155.789 14.94 156.009 15.87 156.009 16.91C156.009 18.83 155.239 20.38 153.699 21.56C152.159 22.72 149.849 23.3 146.769 23.3ZM164.205 23.3C162.845 23.3 161.755 22.9 160.935 22.1C160.115 21.3 159.705 20.29 159.705 19.07V12.53H157.515V9.68L159.405 8.21L161.535 4.49H165.075V8.84H169.275V12.74H165.075V19.16L169.275 19.13V22.4C169.275 22.4 169.035 22.48 168.555 22.64C168.095 22.78 167.485 22.92 166.725 23.06C165.965 23.22 165.125 23.3 164.205 23.3ZM175.864 23.3C174.664 23.3 173.734 23.07 173.074 22.61C172.434 22.15 171.984 21.49 171.724 20.63C171.484 19.75 171.364 18.7 171.364 17.48V8.81H176.764V16.7C176.764 17.44 176.904 18.02 177.184 18.44C177.484 18.86 177.924 19.07 178.504 19.07C179.044 19.07 179.534 18.84 179.974 18.38C180.434 17.92 180.664 17.25 180.664 16.37V8.81H186.064V18.17L186.694 21.17L186.064 23H180.994V21.53L180.694 21.38C180.434 21.64 180.054 21.92 179.554 22.22C179.074 22.52 178.514 22.78 177.874 23C177.254 23.2 176.584 23.3 175.864 23.3ZM194.221 23.3C193.281 23.3 192.371 23.06 191.491 22.58C190.631 22.1 189.921 21.34 189.361 20.3C188.801 19.26 188.521 17.9 188.521 16.22C188.521 14.36 188.791 12.87 189.331 11.75C189.891 10.63 190.611 9.82 191.491 9.32C192.371 8.8 193.281 8.54 194.221 8.54C195.641 8.54 196.641 8.66 197.221 8.9C197.821 9.14 198.121 9.26 198.121 9.26L197.821 3.59L198.121 1.79H203.551V18.2L204.151 21.2L203.551 23.03H198.421V21.56L198.121 21.41C198.121 21.41 197.971 21.57 197.671 21.89C197.371 22.19 196.931 22.5 196.351 22.82C195.771 23.14 195.061 23.3 194.221 23.3ZM196.471 19.07L198.121 18.65V14.27C198.121 13.81 197.971 13.45 197.671 13.19C197.371 12.91 196.971 12.77 196.471 12.77C195.731 12.77 195.171 13.02 194.791 13.52C194.411 14 194.221 14.8 194.221 15.92C194.221 17.02 194.441 17.82 194.881 18.32C195.321 18.82 195.851 19.07 196.471 19.07ZM209.85 7.97L206.04 4.13L209.85 0.319999L213.66 4.13L209.85 7.97ZM207.15 23V13.07L206.52 10.67L207.12 8.84H212.55V23H207.15ZM222.539 23.3C220.099 23.3 218.209 22.72 216.869 21.56C215.529 20.4 214.859 18.52 214.859 15.92C214.859 13.3 215.529 11.42 216.869 10.28C218.209 9.12 220.099 8.54 222.539 8.54C225.039 8.54 226.929 9.12 228.209 10.28C229.509 11.42 230.159 13.3 230.159 15.92C230.159 18.52 229.509 20.4 228.209 21.56C226.929 22.72 225.039 23.3 222.539 23.3ZM222.539 19.4C223.359 19.4 223.929 19.1 224.249 18.5C224.569 17.88 224.729 17.02 224.729 15.92C224.729 14.8 224.569 13.94 224.249 13.34C223.929 12.74 223.359 12.44 222.539 12.44C221.699 12.44 221.109 12.74 220.769 13.34C220.449 13.94 220.289 14.8 220.289 15.92C220.289 17.02 220.449 17.88 220.769 18.5C221.109 19.1 221.699 19.4 222.539 19.4ZM238.104 26.21L247.254 1.76H251.184L242.004 26.21H238.104ZM252.67 19.7V16.7L262.39 14L252.67 11.3V8.3L265.27 12.2V15.8L252.67 19.7Z" fill="black"/>
</svg>
