<svg width="148" height="27" viewBox="0 0 148 27" fill="none" xmlns="http://www.w3.org/2000/svg">
<path d="M13.1 19.7V16.7L3.38 14L13.1 11.3V8.3L0.5 12.2V15.8L13.1 19.7ZM27.7829 23.3C26.2429 23.3 24.7829 23.15 23.4029 22.85C22.0429 22.53 20.8329 21.97 19.7729 21.17C18.7329 20.37 17.9129 19.26 17.3129 17.84C16.7129 16.42 16.4129 14.6 16.4129 12.38C16.4129 10.24 16.7329 8.47 17.3729 7.07C18.0129 5.65 18.8629 4.53 19.9229 3.71C21.0029 2.89 22.1929 2.31 23.4929 1.97C24.8129 1.63 26.1429 1.46 27.4829 1.46C28.4629 1.46 29.3129 1.51 30.0329 1.61C30.7529 1.71 31.4429 1.84 32.1029 2L36.1829 4.37L34.0829 9.02L27.4529 6.68C26.4929 6.68 25.6029 6.87 24.7829 7.25C23.9829 7.63 23.3329 8.24 22.8329 9.08C22.3529 9.9 22.1129 11.01 22.1129 12.41C22.1129 14.67 22.6129 16.26 23.6129 17.18C24.6329 18.08 26.0229 18.53 27.7829 18.53C28.6829 18.53 29.3829 18.49 29.8829 18.41C30.4029 18.31 30.8029 18.23 31.0829 18.17V15.89H27.2729V11.45H36.8129L37.1429 13.25L36.4829 15.74V22.04C36.2629 22.12 35.7629 22.26 34.9829 22.46C34.2229 22.66 33.2229 22.85 31.9829 23.03C30.7629 23.21 29.3629 23.3 27.7829 23.3ZM42.8574 7.97L39.0474 4.13L42.8574 0.319999L46.6674 4.13L42.8574 7.97ZM40.1574 23V13.07L39.5274 10.67L40.1274 8.84H45.5574V23H40.1574ZM54.1072 23.3C52.7472 23.3 51.6572 22.9 50.8372 22.1C50.0172 21.3 49.6072 20.29 49.6072 19.07V12.53H47.4172V9.68L49.3072 8.21L51.4372 4.49H54.9772V8.84H59.1772V12.74H54.9772V19.16L59.1772 19.13V22.4C59.1772 22.4 58.9372 22.48 58.4572 22.64C57.9972 22.78 57.3872 22.92 56.6272 23.06C55.8672 23.22 55.0272 23.3 54.1072 23.3ZM61.8664 23V6.56L61.2664 3.56L61.8664 1.76H67.2664V6.62L66.9664 9.95L67.2664 10.1C67.5064 9.74 67.9464 9.39 68.5864 9.05C69.2464 8.69 70.1064 8.51 71.1664 8.51C72.9664 8.51 74.3164 9.02 75.2164 10.04C76.1164 11.06 76.5664 12.49 76.5664 14.33V18.23L77.1964 21.17L76.5664 23H71.1664V15.11C71.1664 14.35 70.9964 13.77 70.6564 13.37C70.3364 12.95 69.8264 12.74 69.1264 12.74L67.2664 13.61V23H61.8664ZM83.9891 23.3C82.7891 23.3 81.8591 23.07 81.1991 22.61C80.5591 22.15 80.1091 21.49 79.8491 20.63C79.6091 19.75 79.4891 18.7 79.4891 17.48V8.81H84.8891V16.7C84.8891 17.44 85.0291 18.02 85.3091 18.44C85.6091 18.86 86.0491 19.07 86.6291 19.07C87.1691 19.07 87.6591 18.84 88.0991 18.38C88.5591 17.92 88.7891 17.25 88.7891 16.37V8.81H94.1891V18.17L94.8191 21.17L94.1891 23H89.1191V21.53L88.8191 21.38C88.5591 21.64 88.1791 21.92 87.6791 22.22C87.1991 22.52 86.6391 22.78 85.9991 23C85.3791 23.2 84.7091 23.3 83.9891 23.3ZM107.056 23.3C106.096 23.3 105.326 23.21 104.746 23.03C104.186 22.87 103.776 22.71 103.516 22.55C103.256 22.37 103.126 22.28 103.126 22.28V23.03H97.7265V6.59L97.0965 3.59L97.7265 1.79H103.126V6.62L102.826 10.01L103.126 10.16C103.526 9.78 104.016 9.42 104.596 9.08C105.196 8.72 106.016 8.54 107.056 8.54C108.836 8.54 110.226 9.11 111.226 10.25C112.246 11.39 112.756 13.19 112.756 15.65C112.756 17.49 112.496 18.98 111.976 20.12C111.476 21.24 110.796 22.05 109.936 22.55C109.076 23.05 108.116 23.3 107.056 23.3ZM104.506 19.19C105.286 19.19 105.906 18.92 106.366 18.38C106.826 17.82 107.056 16.99 107.056 15.89C107.056 14.81 106.866 14.03 106.486 13.55C106.106 13.05 105.546 12.8 104.806 12.8L103.126 13.43V18.8C103.126 18.8 103.226 18.87 103.426 19.01C103.646 19.13 104.006 19.19 104.506 19.19ZM120.711 26.21L129.861 1.76H133.791L124.611 26.21H120.711ZM135.277 19.7V16.7L144.997 14L135.277 11.3V8.3L147.877 12.2V15.8L135.277 19.7Z" fill="black"/>
</svg>
