<svg width="252" height="27" viewBox="0 0 252 27" fill="none" xmlns="http://www.w3.org/2000/svg">
<path d="M13.1 19.7V16.7L3.38 14L13.1 11.3V8.3L0.5 12.2V15.8L13.1 19.7ZM24.5129 23.3C23.4129 23.3 22.3729 23.2 21.3929 23C20.4129 22.78 19.5629 22.52 18.8429 22.22C18.1229 21.92 17.5929 21.64 17.2529 21.38V16.01C18.2129 16.55 19.4229 17.06 20.8829 17.54C22.3429 18 23.9629 18.23 25.7429 18.23C26.4629 18.23 26.9929 18.14 27.3329 17.96C27.6929 17.76 27.8729 17.42 27.8729 16.94C27.8729 16.42 27.4729 15.99 26.6729 15.65C25.8929 15.29 24.6529 14.85 22.9529 14.33C21.6329 13.91 20.5029 13.45 19.5629 12.95C18.6429 12.43 17.9329 11.79 17.4329 11.03C16.9529 10.25 16.7129 9.26 16.7129 8.06C16.7129 6.82 17.0329 5.7 17.6729 4.7C18.3129 3.7 19.3129 2.91 20.6729 2.33C22.0329 1.75 23.7729 1.46 25.8929 1.46C26.5329 1.46 27.2129 1.49 27.9329 1.55C28.6729 1.59 29.2629 1.65 29.7029 1.73L33.0929 4.22L31.9229 7.88L24.8129 5.93C23.9929 5.93 23.3829 6.1 22.9829 6.44C22.6029 6.78 22.4129 7.19 22.4129 7.67C22.4129 8.25 22.7429 8.71 23.4029 9.05C24.0629 9.39 25.0129 9.73 26.2529 10.07C28.2129 10.61 29.7329 11.21 30.8129 11.87C31.8929 12.53 32.6529 13.28 33.0929 14.12C33.5329 14.94 33.7529 15.87 33.7529 16.91C33.7529 18.83 32.9829 20.38 31.4429 21.56C29.9029 22.72 27.5929 23.3 24.5129 23.3ZM43.059 23.3C41.679 23.3 40.429 23.07 39.309 22.61C38.209 22.15 37.329 21.38 36.669 20.3C36.029 19.22 35.709 17.76 35.709 15.92C35.709 14.06 36.059 12.6 36.759 11.54C37.459 10.46 38.369 9.69 39.489 9.23C40.609 8.77 41.799 8.54 43.059 8.54C44.159 8.54 45.099 8.58 45.879 8.66C46.679 8.74 47.209 8.81 47.469 8.87L49.809 11.51L47.409 14.78L43.959 12.74C42.239 12.74 41.379 13.8 41.379 15.92C41.379 17.02 41.639 17.83 42.159 18.35C42.679 18.85 43.479 19.1 44.559 19.1C45.639 19.1 46.609 18.95 47.469 18.65C48.329 18.35 48.999 18.07 49.479 17.81V22.13C48.859 22.45 48.039 22.73 47.019 22.97C46.019 23.19 44.699 23.3 43.059 23.3ZM59.7137 23.3C58.1737 23.3 56.8037 23.07 55.6037 22.61C54.4037 22.15 53.4637 21.38 52.7837 20.3C52.1037 19.22 51.7637 17.76 51.7637 15.92C51.7637 14.6 51.9837 13.47 52.4237 12.53C52.8837 11.59 53.4937 10.83 54.2537 10.25C55.0137 9.65 55.8637 9.22 56.8037 8.96C57.7437 8.68 58.7137 8.54 59.7137 8.54C61.4337 8.54 62.7537 8.71 63.6737 9.05C64.6137 9.39 65.2337 9.66 65.5337 9.86L67.0337 14.63L66.4337 16.49H57.1337C57.2737 17.23 57.6437 17.85 58.2437 18.35C58.8437 18.85 59.8337 19.1 61.2137 19.1C62.2937 19.1 63.2237 18.98 64.0037 18.74C64.7837 18.5 65.3937 18.29 65.8337 18.11V22.13C65.2337 22.45 64.3637 22.73 63.2237 22.97C62.1037 23.19 60.9337 23.3 59.7137 23.3ZM57.1637 14.57L61.3037 13.97L61.0337 12.68C60.8937 12.6 60.6837 12.54 60.4037 12.5C60.1437 12.46 59.9137 12.44 59.7137 12.44C59.1537 12.44 58.6837 12.56 58.3037 12.8C57.9437 13.04 57.6637 13.33 57.4637 13.67C57.2837 13.99 57.1837 14.29 57.1637 14.57ZM69.5422 23V13.97L68.9422 10.67L69.8722 8.84H74.3422V10.13L74.6122 10.31C74.8322 10.11 75.1322 9.88 75.5122 9.62C75.9122 9.34 76.3922 9.09 76.9522 8.87C77.5122 8.65 78.1422 8.54 78.8422 8.54C80.6422 8.54 81.9922 9.05 82.8922 10.07C83.7922 11.09 84.2422 12.52 84.2422 14.36V18.17L84.8722 21.17L84.2422 23H78.8422V15.14C78.8422 14.38 78.6722 13.8 78.3322 13.4C78.0122 12.98 77.5022 12.77 76.8022 12.77L74.9422 13.34V23H69.5422ZM94.6648 23.3C93.1248 23.3 91.7548 23.07 90.5548 22.61C89.3548 22.15 88.4148 21.38 87.7348 20.3C87.0548 19.22 86.7148 17.76 86.7148 15.92C86.7148 14.6 86.9348 13.47 87.3748 12.53C87.8348 11.59 88.4448 10.83 89.2048 10.25C89.9648 9.65 90.8148 9.22 91.7548 8.96C92.6948 8.68 93.6648 8.54 94.6648 8.54C96.3848 8.54 97.7048 8.71 98.6248 9.05C99.5648 9.39 100.185 9.66 100.485 9.86L101.985 14.63L101.385 16.49H92.0848C92.2248 17.23 92.5948 17.85 93.1948 18.35C93.7948 18.85 94.7848 19.1 96.1648 19.1C97.2448 19.1 98.1748 18.98 98.9548 18.74C99.7348 18.5 100.345 18.29 100.785 18.11V22.13C100.185 22.45 99.3148 22.73 98.1748 22.97C97.0548 23.19 95.8848 23.3 94.6648 23.3ZM92.1148 14.57L96.2548 13.97L95.9848 12.68C95.8448 12.6 95.6348 12.54 95.3548 12.5C95.0948 12.46 94.8648 12.44 94.6648 12.44C94.1048 12.44 93.6348 12.56 93.2548 12.8C92.8948 13.04 92.6148 13.33 92.4148 13.67C92.2348 13.99 92.1348 14.29 92.1148 14.57ZM112.3 23V6.56L111.7 3.56L112.3 1.76H122.5C124.76 1.76 126.57 2.18 127.93 3.02C129.29 3.86 129.97 5.22 129.97 7.1C129.97 8.04 129.81 8.89 129.49 9.65C129.17 10.41 128.71 11 128.11 11.42C129.47 11.86 130.47 12.53 131.11 13.43C131.75 14.33 132.07 15.4 132.07 16.64C132.07 18.82 131.43 20.43 130.15 21.47C128.89 22.49 127.04 23 124.6 23H112.3ZM117.7 10.01H122.44C123.12 10.01 123.61 9.85 123.91 9.53C124.21 9.21 124.36 8.79 124.36 8.27C124.36 7.61 124.14 7.16 123.7 6.92C123.26 6.68 122.74 6.56 122.14 6.56H117.7V10.01ZM117.7 18.2H123.7C124.42 18.2 124.95 18.11 125.29 17.93C125.65 17.75 125.88 17.52 125.98 17.24C126.1 16.96 126.16 16.67 126.16 16.37C126.16 15.85 125.97 15.41 125.59 15.05C125.23 14.67 124.7 14.48 124 14.48H117.7V18.2ZM138.657 23.3C137.457 23.3 136.527 23.07 135.867 22.61C135.227 22.15 134.777 21.49 134.517 20.63C134.277 19.75 134.157 18.7 134.157 17.48V8.81H139.557V16.7C139.557 17.44 139.697 18.02 139.977 18.44C140.277 18.86 140.717 19.07 141.297 19.07C141.837 19.07 142.327 18.84 142.767 18.38C143.227 17.92 143.457 17.25 143.457 16.37V8.81H148.857V18.17L149.487 21.17L148.857 23H143.787V21.53L143.487 21.38C143.227 21.64 142.847 21.92 142.347 22.22C141.867 22.52 141.307 22.78 140.667 23C140.047 23.2 139.377 23.3 138.657 23.3ZM155.064 7.97L151.254 4.13L155.064 0.319999L158.874 4.13L155.064 7.97ZM152.364 23V13.07L151.734 10.67L152.334 8.84H157.764V23H152.364ZM161.154 23L161.124 6.56L160.524 3.56L161.154 1.76H166.554V23H161.154ZM174.798 23.3C173.858 23.3 172.948 23.06 172.068 22.58C171.208 22.1 170.498 21.34 169.938 20.3C169.378 19.26 169.098 17.9 169.098 16.22C169.098 14.36 169.368 12.87 169.908 11.75C170.468 10.63 171.188 9.82 172.068 9.32C172.948 8.8 173.858 8.54 174.798 8.54C176.218 8.54 177.218 8.66 177.798 8.9C178.398 9.14 178.698 9.26 178.698 9.26L178.398 3.59L178.698 1.79H184.128V18.2L184.728 21.2L184.128 23.03H178.998V21.56L178.698 21.41C178.698 21.41 178.548 21.57 178.248 21.89C177.948 22.19 177.508 22.5 176.928 22.82C176.348 23.14 175.638 23.3 174.798 23.3ZM177.048 19.07L178.698 18.65V14.27C178.698 13.81 178.548 13.45 178.248 13.19C177.948 12.91 177.548 12.77 177.048 12.77C176.308 12.77 175.748 13.02 175.368 13.52C174.988 14 174.798 14.8 174.798 15.92C174.798 17.02 175.018 17.82 175.458 18.32C175.898 18.82 176.428 19.07 177.048 19.07ZM194.626 23.3C193.086 23.3 191.716 23.07 190.516 22.61C189.316 22.15 188.376 21.38 187.696 20.3C187.016 19.22 186.676 17.76 186.676 15.92C186.676 14.6 186.896 13.47 187.336 12.53C187.796 11.59 188.406 10.83 189.166 10.25C189.926 9.65 190.776 9.22 191.716 8.96C192.656 8.68 193.626 8.54 194.626 8.54C196.346 8.54 197.666 8.71 198.586 9.05C199.526 9.39 200.146 9.66 200.446 9.86L201.946 14.63L201.346 16.49H192.046C192.186 17.23 192.556 17.85 193.156 18.35C193.756 18.85 194.746 19.1 196.126 19.1C197.206 19.1 198.136 18.98 198.916 18.74C199.696 18.5 200.306 18.29 200.746 18.11V22.13C200.146 22.45 199.276 22.73 198.136 22.97C197.016 23.19 195.846 23.3 194.626 23.3ZM192.076 14.57L196.216 13.97L195.946 12.68C195.806 12.6 195.596 12.54 195.316 12.5C195.056 12.46 194.826 12.44 194.626 12.44C194.066 12.44 193.596 12.56 193.216 12.8C192.856 13.04 192.576 13.33 192.376 13.67C192.196 13.99 192.096 14.29 192.076 14.57ZM204.484 23V13.61L203.854 10.61L204.484 8.81H208.564L209.164 9.5C209.164 9.5 209.304 9.42 209.584 9.26C209.864 9.08 210.254 8.91 210.754 8.75C211.274 8.59 211.874 8.51 212.554 8.51C212.954 8.51 213.354 8.54 213.754 8.6C214.154 8.66 214.464 8.74 214.684 8.84L216.634 10.49L214.684 14.33L210.724 12.68L209.824 12.98V23H204.484ZM223.836 26.21L232.986 1.76H236.916L227.736 26.21H223.836ZM238.402 19.7V16.7L248.122 14L238.402 11.3V8.3L251.002 12.2V15.8L238.402 19.7Z" fill="black"/>
</svg>
