<svg width="545" height="80" viewBox="0 0 545 80" fill="none" xmlns="http://www.w3.org/2000/svg">
<path d="M2.38419e-07 49V44.6L48.6 18.5V26L10.3 46.8L48.6 67.5V75L2.38419e-07 49ZM98.1422 59.9H70.9422L66.2422 75H56.4422L80.2422 5H88.8422L112.642 75H102.842L98.1422 59.9ZM95.7422 52.4L84.5422 16.5L73.3422 52.4H95.7422ZM135.685 76C129.218 76 124.085 73.6 120.285 68.8C116.552 64 114.685 57.4333 114.685 49.1C114.685 44.0333 115.552 39.6333 117.285 35.9C119.018 32.1 121.485 29.1667 124.685 27.1C127.885 25.0333 131.618 24 135.885 24C142.018 24 146.952 26.5667 150.685 31.7H150.885V0.799996H159.285V62.4C159.285 68.6 159.385 72.8 159.585 75H151.785C151.652 73.4 151.585 70.7667 151.585 67.1H151.385C149.852 69.7667 147.652 71.9333 144.785 73.6C141.918 75.2 138.885 76 135.685 76ZM136.885 69.2C141.152 69.2 144.518 67.9333 146.985 65.4C149.518 62.8 150.785 59.3333 150.785 55V45.9C150.785 41.2333 149.518 37.5 146.985 34.7C144.452 31.9 141.085 30.5 136.885 30.5C132.618 30.5 129.252 32.1667 126.785 35.5C124.385 38.7667 123.185 43.3667 123.185 49.3C123.185 55.5 124.385 60.3667 126.785 63.9C129.252 67.4333 132.618 69.2 136.885 69.2ZM193.284 76C188.351 76 184.051 74.9667 180.384 72.9C176.784 70.7667 173.984 67.7333 171.984 63.8C170.051 59.8667 169.084 55.2667 169.084 50C169.084 44.7333 170.051 40.1333 171.984 36.2C173.984 32.2667 176.784 29.2667 180.384 27.2C184.051 25.0667 188.351 24 193.284 24C200.751 24 206.651 26.3333 210.984 31C215.384 35.6667 217.584 42 217.584 50C217.584 58 215.384 64.3333 210.984 69C206.651 73.6667 200.751 76 193.284 76ZM193.284 69.5C198.218 69.5 202.084 67.7667 204.884 64.3C207.684 60.8333 209.084 56.0667 209.084 50C209.084 43.9333 207.684 39.1667 204.884 35.7C202.084 32.2333 198.218 30.5 193.284 30.5C188.418 30.5 184.584 32.2333 181.784 35.7C178.984 39.1667 177.584 43.9333 177.584 50C177.584 56.0667 178.984 60.8333 181.784 64.3C184.584 67.7667 188.418 69.5 193.284 69.5ZM250.948 76C247.815 76 244.782 75.2 241.848 73.6C238.915 71.9333 236.715 69.7667 235.248 67.1H235.048C235.115 69.2333 235.048 71.8667 234.848 75H227.048C227.248 72.8 227.348 68.6 227.348 62.4V0.799996H235.848V31.7H236.048C239.382 26.5667 244.415 24 251.148 24C257.548 24 262.615 26.2667 266.348 30.8C270.082 35.2667 271.948 41.3667 271.948 49.1C271.948 57.4333 270.048 64 266.248 68.8C262.515 73.6 257.415 76 250.948 76ZM249.748 69.2C254.015 69.2 257.348 67.4333 259.748 63.9C262.215 60.3667 263.448 55.5 263.448 49.3C263.448 43.3667 262.215 38.7667 259.748 35.5C257.348 32.1667 254.015 30.5 249.748 30.5C245.615 30.5 242.248 31.9333 239.648 34.8C237.115 37.6 235.848 41.3 235.848 45.9V55C235.848 59.3333 237.082 62.8 239.548 65.4C242.082 67.9333 245.482 69.2 249.748 69.2ZM323.548 53.3H287.548C288.014 58.3667 289.514 62.2333 292.048 64.9C294.581 67.5 298.081 68.8 302.548 68.8C308.548 68.8 313.314 66.4333 316.848 61.7L321.648 66.3C319.714 69.3667 317.014 71.7667 313.548 73.5C310.148 75.1667 306.381 76 302.248 76C294.848 76 289.114 73.7333 285.048 69.2C280.981 64.6667 278.948 58.3 278.948 50.1C278.948 41.9667 280.981 35.6 285.048 31C289.181 26.3333 294.848 24 302.048 24C308.781 24 314.048 26.3 317.848 30.9C321.648 35.4333 323.548 41.8 323.548 50V53.3ZM315.748 46.3C315.748 41.5 314.481 37.7333 311.948 35C309.481 32.2667 306.048 30.9 301.648 30.9C297.514 30.9 294.214 32.3 291.748 35.1C289.348 37.9 287.948 41.8667 287.548 47H315.748V46.3ZM370.022 49.6L353.822 25H363.322L374.422 43.6L385.522 25H395.022L378.822 49.6L396.322 75H386.722L374.422 55L362.122 75H352.522L370.022 49.6ZM418.791 76C412.324 76 407.191 73.6 403.391 68.8C399.657 64 397.791 57.4333 397.791 49.1C397.791 44.0333 398.657 39.6333 400.391 35.9C402.124 32.1 404.591 29.1667 407.791 27.1C410.991 25.0333 414.724 24 418.991 24C425.124 24 430.057 26.5667 433.791 31.7H433.991V0.799996H442.391V62.4C442.391 68.6 442.491 72.8 442.691 75H434.891C434.757 73.4 434.691 70.7667 434.691 67.1H434.491C432.957 69.7667 430.757 71.9333 427.891 73.6C425.024 75.2 421.991 76 418.791 76ZM419.991 69.2C424.257 69.2 427.624 67.9333 430.091 65.4C432.624 62.8 433.891 59.3333 433.891 55V45.9C433.891 41.2333 432.624 37.5 430.091 34.7C427.557 31.9 424.191 30.5 419.991 30.5C415.724 30.5 412.357 32.1667 409.891 35.5C407.491 38.7667 406.291 43.3667 406.291 49.3C406.291 55.5 407.491 60.3667 409.891 63.9C412.357 67.4333 415.724 69.2 419.991 69.2ZM484.19 2.5H492.49L454.49 79.3H446.19L484.19 2.5ZM496.094 67.5L534.394 46.8L496.094 26V18.5L544.694 44.6V49L496.094 75V67.5Z" fill="#66FCF1"/>
</svg>
