<svg width="75" height="240" viewBox="0 0 75 240" fill="none" xmlns="http://www.w3.org/2000/svg">
<path d="M70.1484 0.0537109L74.9092 13.9697C65.2249 16.9808 58.5518 22.3926 54.8896 30.2051C51.2275 37.9362 49.3965 46.8066 49.3965 56.8164V82.085C49.3965 90.223 47.7282 97.6286 44.3916 104.302C41.1364 110.894 35.9281 116.143 28.7666 120.049C21.6865 123.955 12.3685 125.908 0.8125 125.908V111.016C10.0085 111.016 16.6003 108.411 20.5879 103.203C24.6569 97.9948 26.6914 90.9554 26.6914 82.085V56.8164C26.6914 48.2715 27.9935 40.2962 30.5977 32.8906C33.2832 25.4036 37.7591 18.8525 44.0254 13.2373C50.373 7.54069 59.0807 3.14616 70.1484 0.0537109ZM74.9092 225.64L70.1484 239.678C59.0807 236.504 50.373 232.109 44.0254 226.494C37.7591 220.879 33.2832 214.328 30.5977 206.841C27.9935 199.435 26.6914 191.46 26.6914 182.915V157.769C26.6914 151.828 25.7962 146.701 24.0059 142.388C22.2155 138.075 19.4079 134.738 15.583 132.378C11.8395 129.937 6.91602 128.716 0.8125 128.716V113.823C12.3685 113.823 21.6865 115.776 28.7666 119.683C35.9281 123.589 41.1364 128.879 44.3916 135.552C47.7282 142.144 49.3965 149.549 49.3965 157.769V182.915C49.3965 189.588 50.1696 195.773 51.7158 201.47C53.3434 207.166 55.9883 212.09 59.6504 216.24C63.3939 220.472 68.4801 223.605 74.9092 225.64Z" fill="#66FCF1"/>
</svg>
