<svg width="75" height="240" viewBox="0 0 75 240" fill="none" xmlns="http://www.w3.org/2000/svg">
<path d="M0.441406 13.9697L5.20215 0.0537109C16.3512 3.14616 25.0589 7.54069 31.3252 13.2373C37.6729 18.8525 42.1488 25.4036 44.7529 32.8906C47.3571 40.2962 48.6592 48.2715 48.6592 56.8164V82.085C48.6592 87.9443 49.5544 93.0713 51.3447 97.4658C53.1351 101.779 55.902 105.116 59.6455 107.476C63.4704 109.836 68.4346 111.016 74.5381 111.016V124.81C63.0635 124.81 53.7454 122.979 46.584 119.316C39.4225 115.573 34.1735 110.487 30.8369 104.058C27.5817 97.5472 25.9541 90.223 25.9541 82.085V56.8164C25.9541 50.1432 25.181 43.9583 23.6348 38.2617C22.0885 32.4837 19.4437 27.5195 15.7002 23.3691C12.0381 19.1374 6.95182 16.0042 0.441406 13.9697ZM5.20215 239.678L0.441406 225.64C6.87044 223.605 11.916 220.472 15.5781 216.24C19.3216 212.09 21.9665 207.166 23.5127 201.47C25.1403 195.773 25.9541 189.588 25.9541 182.915V157.769C25.9541 149.549 27.5817 142.225 30.8369 135.796C34.1735 129.367 39.4225 124.321 46.584 120.659C53.7454 116.916 63.0635 115.044 74.5381 115.044V128.716C65.4235 128.716 58.8317 131.361 54.7627 136.65C50.6937 141.859 48.6592 148.898 48.6592 157.769V182.915C48.6592 191.46 47.3571 199.435 44.7529 206.841C42.1488 214.328 37.6729 220.879 31.3252 226.494C25.0589 232.109 16.3512 236.504 5.20215 239.678Z" fill="#66FCF1"/>
</svg>
