<svg width="570" height="82" viewBox="0 0 570 82" fill="none" xmlns="http://www.w3.org/2000/svg">
<path d="M13.6738 44.1895L43.459 54.248V69.2383L0.246094 51.6602V40.5273L13.6738 44.1895ZM43.459 36.0352L13.625 46.2891L0.246094 49.8047V38.6719L43.459 21.0938V36.0352ZM84.6211 18.8477L67.2871 75H48.8789L75.002 3.90625H86.6719L84.6211 18.8477ZM98.9766 75L81.5938 18.8477L79.3477 3.90625H91.1641L117.434 75H98.9766ZM98.293 48.4863V61.7188H61.8184V48.4863H98.293ZM122.023 0H138.479V62.0117L136.77 75H122.023V0ZM170.9 47.998V49.0234C170.9 53.0273 170.493 56.6732 169.68 59.9609C168.866 63.2487 167.613 66.097 165.92 68.5059C164.227 70.8822 162.095 72.7214 159.523 74.0234C156.952 75.3255 153.908 75.9766 150.393 75.9766C147.202 75.9766 144.468 75.293 142.189 73.9258C139.911 72.526 138.007 70.6055 136.477 68.1641C134.947 65.6901 133.71 62.8418 132.766 59.6191C131.822 56.3639 131.073 52.8809 130.52 49.1699V47.9492C131.073 44.2708 131.822 40.8203 132.766 37.5977C133.71 34.3424 134.947 31.4941 136.477 29.0527C138.007 26.5788 139.895 24.6582 142.141 23.291C144.419 21.8913 147.137 21.1914 150.295 21.1914C153.843 21.1914 156.903 21.8587 159.475 23.1934C162.079 24.528 164.227 26.3997 165.92 28.8086C167.613 31.2174 168.866 34.0495 169.68 37.3047C170.493 40.5599 170.9 44.1243 170.9 47.998ZM154.445 49.0234V47.998C154.445 46.0775 154.331 44.2708 154.104 42.5781C153.876 40.8854 153.469 39.388 152.883 38.0859C152.297 36.7839 151.467 35.7585 150.393 35.0098C149.318 34.2611 147.919 33.8867 146.193 33.8867C144.436 33.8867 142.954 34.1797 141.75 34.7656C140.578 35.3516 139.634 36.1979 138.918 37.3047C138.234 38.3789 137.746 39.7135 137.453 41.3086C137.16 42.8711 137.03 44.6452 137.062 46.6309V50.4883C136.997 53.1901 137.242 55.5013 137.795 57.4219C138.348 59.3424 139.309 60.8073 140.676 61.8164C142.043 62.8255 143.915 63.3301 146.291 63.3301C148.049 63.3301 149.465 62.9883 150.539 62.3047C151.646 61.6211 152.476 60.6445 153.029 59.375C153.583 58.1055 153.957 56.5918 154.152 54.834C154.348 53.0762 154.445 51.1393 154.445 49.0234ZM176.174 49.1211V48.0957C176.174 44.222 176.727 40.6576 177.834 37.4023C178.941 34.1146 180.568 31.2663 182.717 28.8574C184.865 26.4486 187.518 24.5768 190.676 23.2422C193.833 21.875 197.479 21.1914 201.613 21.1914C205.78 21.1914 209.442 21.875 212.6 23.2422C215.79 24.5768 218.459 26.4486 220.607 28.8574C222.756 31.2663 224.383 34.1146 225.49 37.4023C226.597 40.6576 227.15 44.222 227.15 48.0957V49.1211C227.15 52.9622 226.597 56.5267 225.49 59.8145C224.383 63.0697 222.756 65.918 220.607 68.3594C218.459 70.7682 215.806 72.64 212.648 73.9746C209.491 75.3092 205.845 75.9766 201.711 75.9766C197.577 75.9766 193.915 75.3092 190.725 73.9746C187.535 72.64 184.865 70.7682 182.717 68.3594C180.568 65.918 178.941 63.0697 177.834 59.8145C176.727 56.5267 176.174 52.9622 176.174 49.1211ZM192.629 48.0957V49.1211C192.629 51.1068 192.775 52.9622 193.068 54.6875C193.361 56.4128 193.85 57.9264 194.533 59.2285C195.217 60.498 196.145 61.4909 197.316 62.207C198.488 62.9232 199.953 63.2812 201.711 63.2812C203.436 63.2812 204.868 62.9232 206.008 62.207C207.18 61.4909 208.107 60.498 208.791 59.2285C209.475 57.9264 209.963 56.4128 210.256 54.6875C210.549 52.9622 210.695 51.1068 210.695 49.1211V48.0957C210.695 46.1751 210.549 44.3685 210.256 42.6758C209.963 40.9505 209.475 39.4368 208.791 38.1348C208.107 36.8001 207.18 35.7585 206.008 35.0098C204.836 34.2611 203.371 33.8867 201.613 33.8867C199.888 33.8867 198.439 34.2611 197.268 35.0098C196.128 35.7585 195.217 36.8001 194.533 38.1348C193.85 39.4368 193.361 40.9505 193.068 42.6758C192.775 44.3685 192.629 46.1751 192.629 48.0957ZM265.334 62.1582V22.168H281.838V75H266.408L265.334 62.1582ZM266.896 51.416L271.193 51.3184C271.193 54.8665 270.77 58.1543 269.924 61.1816C269.077 64.1764 267.824 66.7806 266.164 68.9941C264.536 71.2077 262.518 72.9329 260.109 74.1699C257.733 75.3743 254.982 75.9766 251.857 75.9766C249.253 75.9766 246.861 75.6185 244.68 74.9023C242.531 74.1536 240.676 72.998 239.113 71.4355C237.551 69.8405 236.33 67.806 235.451 65.332C234.605 62.8255 234.182 59.8307 234.182 56.3477V22.168H250.637V56.4453C250.637 57.6172 250.783 58.6263 251.076 59.4727C251.369 60.319 251.792 61.0352 252.346 61.6211C252.899 62.1745 253.583 62.5977 254.396 62.8906C255.243 63.151 256.203 63.2812 257.277 63.2812C259.751 63.2812 261.688 62.7604 263.088 61.7188C264.488 60.6771 265.464 59.2611 266.018 57.4707C266.604 55.6803 266.896 53.6621 266.896 51.416ZM318.752 22.168V33.5938H286.916V22.168H318.752ZM293.605 9.0332H310.061V57.7637C310.061 59.1634 310.223 60.2539 310.549 61.0352C310.874 61.7839 311.428 62.321 312.209 62.6465C313.023 62.9395 314.097 63.0859 315.432 63.0859C316.376 63.0859 317.157 63.0697 317.775 63.0371C318.394 62.972 318.98 62.8906 319.533 62.793V74.5605C318.133 75.0163 316.669 75.3581 315.139 75.5859C313.609 75.8464 311.981 75.9766 310.256 75.9766C306.74 75.9766 303.729 75.4232 301.223 74.3164C298.749 73.2096 296.861 71.4681 295.559 69.0918C294.257 66.7155 293.605 63.623 293.605 59.8145V9.0332ZM366.799 33.3496V75H350.344V22.168H365.773L366.799 33.3496ZM364.797 46.7773L361.037 46.875C361.037 43.1641 361.477 39.7461 362.355 36.6211C363.234 33.4961 364.536 30.778 366.262 28.4668C367.987 26.1556 370.103 24.3652 372.609 23.0957C375.148 21.8262 378.078 21.1914 381.398 21.1914C383.71 21.1914 385.809 21.5495 387.697 22.2656C389.585 22.9492 391.213 24.0397 392.58 25.5371C393.947 27.002 394.989 28.9225 395.705 31.2988C396.454 33.6426 396.828 36.4583 396.828 39.7461V75H380.373V41.8457C380.373 39.5996 380.113 37.9069 379.592 36.7676C379.104 35.6283 378.387 34.8633 377.443 34.4727C376.499 34.082 375.344 33.8867 373.977 33.8867C372.544 33.8867 371.258 34.2122 370.119 34.8633C368.98 35.5143 368.003 36.4258 367.189 37.5977C366.408 38.737 365.806 40.0879 365.383 41.6504C364.992 43.2129 364.797 44.9219 364.797 46.7773ZM394.973 46.7773L390.383 46.875C390.383 43.1641 390.79 39.7461 391.604 36.6211C392.45 33.4961 393.703 30.778 395.363 28.4668C397.056 26.1556 399.156 24.3652 401.662 23.0957C404.169 21.8262 407.082 21.1914 410.402 21.1914C412.811 21.1914 415.025 21.5495 417.043 22.2656C419.061 22.9818 420.803 24.1374 422.268 25.7324C423.732 27.3275 424.872 29.4434 425.686 32.0801C426.499 34.6842 426.906 37.9069 426.906 41.748V75H410.402V41.748C410.402 39.5671 410.142 37.9232 409.621 36.8164C409.133 35.6771 408.417 34.9121 407.473 34.5215C406.529 34.0983 405.406 33.8867 404.104 33.8867C402.541 33.8867 401.19 34.2122 400.051 34.8633C398.911 35.5143 397.951 36.4258 397.17 37.5977C396.421 38.737 395.868 40.0879 395.51 41.6504C395.152 43.2129 394.973 44.9219 394.973 46.7773ZM461.916 75.9766C457.619 75.9766 453.778 75.3092 450.393 73.9746C447.007 72.6074 444.143 70.7357 441.799 68.3594C439.488 65.9831 437.714 63.2487 436.477 60.1562C435.272 57.0638 434.67 53.7923 434.67 50.3418V48.4863C434.67 44.6126 435.207 41.0319 436.281 37.7441C437.355 34.4238 438.951 31.5267 441.066 29.0527C443.182 26.5788 445.835 24.6582 449.025 23.291C452.215 21.8913 455.926 21.1914 460.158 21.1914C463.902 21.1914 467.255 21.7936 470.217 22.998C473.179 24.2025 475.686 25.9277 477.736 28.1738C479.82 30.4199 481.398 33.138 482.473 36.3281C483.579 39.5182 484.133 43.099 484.133 47.0703V53.7598H440.969V43.457H468.068V42.1875C468.101 40.4297 467.792 38.9323 467.141 37.6953C466.522 36.4583 465.611 35.5143 464.406 34.8633C463.202 34.2122 461.737 33.8867 460.012 33.8867C458.221 33.8867 456.74 34.2773 455.568 35.0586C454.429 35.8398 453.534 36.9141 452.883 38.2812C452.264 39.6159 451.825 41.1621 451.564 42.9199C451.304 44.6777 451.174 46.5332 451.174 48.4863V50.3418C451.174 52.2949 451.434 54.069 451.955 55.6641C452.508 57.2591 453.29 58.6263 454.299 59.7656C455.34 60.8724 456.577 61.735 458.01 62.3535C459.475 62.972 461.135 63.2812 462.99 63.2812C465.236 63.2812 467.45 62.8581 469.631 62.0117C471.812 61.1654 473.684 59.7656 475.246 57.8125L482.717 66.6992C481.643 68.2292 480.113 69.7103 478.127 71.1426C476.174 72.5749 473.83 73.7467 471.096 74.6582C468.361 75.5371 465.301 75.9766 461.916 75.9766ZM520.803 3.90625L496.486 81.1035H484.768L509.084 3.90625H520.803ZM556.447 46.1426L526.76 36.084V21.1426L569.729 38.7207V49.9023L556.447 46.1426ZM526.76 54.3457L556.447 44.043L569.729 40.5762V51.709L526.76 69.2871V54.3457Z" fill="#66FCF1"/>
</svg>
