<svg width="195" height="26" viewBox="0 0 195 26" fill="none" xmlns="http://www.w3.org/2000/svg">
<path d="M13.1 18.7V15.7L3.38 13L13.1 10.3V7.3L0.5 11.2V14.8L13.1 18.7ZM15.5129 22L16.9529 16.93V13.12L19.1729 12.22L23.0729 0.789999H30.8429L35.6729 14.23L37.9829 18.49V22H32.6729L31.1729 17.2H22.4429L21.1529 22H15.5129ZM24.4229 12.58H29.5229L27.2429 5.71H26.6129L24.4229 12.58ZM40.0695 22V12.97L39.4695 9.67L40.3995 7.84H44.8695V9.13L45.1395 9.31C45.3595 9.11 45.6595 8.88 46.0395 8.62C46.4395 8.34 46.9195 8.09 47.4795 7.87C48.0395 7.65 48.6695 7.54 49.3695 7.54C51.1695 7.54 52.5195 8.05 53.4195 9.07C54.3195 10.09 54.7695 11.52 54.7695 13.36V17.17L55.3995 20.17L54.7695 22H49.3695V14.14C49.3695 13.38 49.1995 12.8 48.8595 12.4C48.5395 11.98 48.0295 11.77 47.3295 11.77L45.4695 12.34V22H40.0695ZM62.1922 22.3C61.3322 22.3 60.5322 22.18 59.7922 21.94C59.0722 21.68 58.4922 21.24 58.0522 20.62C57.6122 20 57.3922 19.14 57.3922 18.04C57.3922 17.04 57.6422 16.21 58.1422 15.55C58.6422 14.89 59.3222 14.4 60.1822 14.08C61.0422 13.76 62.0122 13.6 63.0922 13.6C64.1322 13.6 64.9122 13.72 65.4322 13.96C65.9522 14.18 66.4022 14.41 66.7822 14.65L66.9922 14.47C66.9922 13.87 66.9422 13.37 66.8422 12.97C66.7422 12.57 66.5122 12.27 66.1522 12.07C65.7922 11.85 65.2322 11.74 64.4722 11.74C63.7322 11.74 62.9422 11.81 62.1022 11.95C61.2822 12.07 60.5222 12.23 59.8222 12.43C59.1422 12.61 58.6322 12.79 58.2922 12.97V8.47C58.9122 8.25 59.7922 8.05 60.9322 7.87C62.0922 7.67 63.5122 7.57 65.1922 7.57C66.9922 7.57 68.4122 7.8 69.4522 8.26C70.5122 8.7 71.2722 9.35 71.7322 10.21C72.1922 11.05 72.4222 12.06 72.4222 13.24V17.23L73.0222 20.26L72.4222 22.03H67.2922V20.56L66.9922 20.41C66.8322 20.57 66.5522 20.8 66.1522 21.1C65.7522 21.4 65.2222 21.68 64.5622 21.94C63.9022 22.18 63.1122 22.3 62.1922 22.3ZM64.7422 18.37C65.2822 18.37 65.7422 18.32 66.1222 18.22C66.5222 18.12 66.8122 18.03 66.9922 17.95V17.38C66.9922 17.12 66.8022 16.87 66.4222 16.63C66.0622 16.39 65.4922 16.27 64.7122 16.27C63.6322 16.27 63.0922 16.65 63.0922 17.41C63.0922 17.73 63.2122 17.97 63.4522 18.13C63.6922 18.29 64.1222 18.37 64.7422 18.37ZM82.3168 22.3C80.9368 22.3 79.6868 22.07 78.5668 21.61C77.4668 21.15 76.5868 20.38 75.9268 19.3C75.2868 18.22 74.9668 16.76 74.9668 14.92C74.9668 13.06 75.3168 11.6 76.0168 10.54C76.7168 9.46 77.6268 8.69 78.7468 8.23C79.8668 7.77 81.0568 7.54 82.3168 7.54C83.4168 7.54 84.3568 7.58 85.1368 7.66C85.9368 7.74 86.4668 7.81 86.7268 7.87L89.0668 10.51L86.6668 13.78L83.2168 11.74C81.4968 11.74 80.6368 12.8 80.6368 14.92C80.6368 16.02 80.8968 16.83 81.4168 17.35C81.9368 17.85 82.7368 18.1 83.8168 18.1C84.8968 18.1 85.8668 17.95 86.7268 17.65C87.5868 17.35 88.2568 17.07 88.7368 16.81V21.13C88.1168 21.45 87.2968 21.73 86.2768 21.97C85.2768 22.19 83.9568 22.3 82.3168 22.3ZM98.7015 22.3C96.2615 22.3 94.3715 21.72 93.0315 20.56C91.6915 19.4 91.0215 17.52 91.0215 14.92C91.0215 12.3 91.6915 10.42 93.0315 9.28C94.3715 8.12 96.2615 7.54 98.7015 7.54C101.201 7.54 103.091 8.12 104.371 9.28C105.671 10.42 106.321 12.3 106.321 14.92C106.321 17.52 105.671 19.4 104.371 20.56C103.091 21.72 101.201 22.3 98.7015 22.3ZM98.7015 18.4C99.5215 18.4 100.091 18.1 100.411 17.5C100.731 16.88 100.891 16.02 100.891 14.92C100.891 13.8 100.731 12.94 100.411 12.34C100.091 11.74 99.5215 11.44 98.7015 11.44C97.8615 11.44 97.2715 11.74 96.9315 12.34C96.6115 12.94 96.4515 13.8 96.4515 14.92C96.4515 16.02 96.6115 16.88 96.9315 17.5C97.2715 18.1 97.8615 18.4 98.7015 18.4ZM108.859 22V12.97L108.259 9.67L109.189 7.84H113.659V9.13L113.929 9.31C114.149 9.11 114.449 8.88 114.829 8.62C115.229 8.34 115.709 8.09 116.269 7.87C116.829 7.65 117.459 7.54 118.159 7.54C119.959 7.54 121.309 8.05 122.209 9.07C123.109 10.09 123.559 11.52 123.559 13.36V17.17L124.189 20.17L123.559 22H118.159V14.14C118.159 13.38 117.989 12.8 117.649 12.4C117.329 11.98 116.819 11.77 116.119 11.77L114.259 12.34V22H108.859ZM131.731 22.3C130.791 22.3 129.881 22.06 129.001 21.58C128.141 21.1 127.431 20.34 126.871 19.3C126.311 18.26 126.031 16.9 126.031 15.22C126.031 13.36 126.301 11.87 126.841 10.75C127.401 9.63 128.121 8.82 129.001 8.32C129.881 7.8 130.791 7.54 131.731 7.54C133.151 7.54 134.151 7.66 134.731 7.9C135.331 8.14 135.631 8.26 135.631 8.26L135.331 2.59L135.631 0.789999H141.061V17.2L141.661 20.2L141.061 22.03H135.931V20.56L135.631 20.41C135.631 20.41 135.481 20.57 135.181 20.89C134.881 21.19 134.441 21.5 133.861 21.82C133.281 22.14 132.571 22.3 131.731 22.3ZM133.981 18.07L135.631 17.65V13.27C135.631 12.81 135.481 12.45 135.181 12.19C134.881 11.91 134.481 11.77 133.981 11.77C133.241 11.77 132.681 12.02 132.301 12.52C131.921 13 131.731 13.8 131.731 14.92C131.731 16.02 131.951 16.82 132.391 17.32C132.831 17.82 133.361 18.07 133.981 18.07ZM148.559 22.3C147.699 22.3 146.899 22.18 146.159 21.94C145.439 21.68 144.859 21.24 144.419 20.62C143.979 20 143.759 19.14 143.759 18.04C143.759 17.04 144.009 16.21 144.509 15.55C145.009 14.89 145.689 14.4 146.549 14.08C147.409 13.76 148.379 13.6 149.459 13.6C150.499 13.6 151.279 13.72 151.799 13.96C152.319 14.18 152.769 14.41 153.149 14.65L153.359 14.47C153.359 13.87 153.309 13.37 153.209 12.97C153.109 12.57 152.879 12.27 152.519 12.07C152.159 11.85 151.599 11.74 150.839 11.74C150.099 11.74 149.309 11.81 148.469 11.95C147.649 12.07 146.889 12.23 146.189 12.43C145.509 12.61 144.999 12.79 144.659 12.97V8.47C145.279 8.25 146.159 8.05 147.299 7.87C148.459 7.67 149.879 7.57 151.559 7.57C153.359 7.57 154.779 7.8 155.819 8.26C156.879 8.7 157.639 9.35 158.099 10.21C158.559 11.05 158.789 12.06 158.789 13.24V17.23L159.389 20.26L158.789 22.03H153.659V20.56L153.359 20.41C153.199 20.57 152.919 20.8 152.519 21.1C152.119 21.4 151.589 21.68 150.929 21.94C150.269 22.18 149.479 22.3 148.559 22.3ZM151.109 18.37C151.649 18.37 152.109 18.32 152.489 18.22C152.889 18.12 153.179 18.03 153.359 17.95V17.38C153.359 17.12 153.169 16.87 152.789 16.63C152.429 16.39 151.859 16.27 151.079 16.27C149.999 16.27 149.459 16.65 149.459 17.41C149.459 17.73 149.579 17.97 149.819 18.13C150.059 18.29 150.489 18.37 151.109 18.37ZM167.791 25.21L176.941 0.76H180.871L171.691 25.21H167.791ZM182.357 18.7V15.7L192.077 13L182.357 10.3V7.3L194.957 11.2V14.8L182.357 18.7Z" fill="black"/>
</svg>
