<svg width="195" height="26" viewBox="0 0 195 26" fill="none" xmlns="http://www.w3.org/2000/svg">
<path d="M13.1 18.7V15.7L3.38 13L13.1 10.3V7.3L0.5 11.2V14.8L13.1 18.7ZM15.5129 22L16.9529 16.93V13.12L19.1729 12.22L23.0729 0.789999H30.8429L35.6729 14.23L37.9829 18.49V22H32.6729L31.1729 17.2H22.4429L21.1529 22H15.5129ZM24.4229 12.58H29.5229L27.2429 5.71H26.6129L24.4229 12.58ZM44.7195 22.3C43.7795 22.3 42.8695 22.06 41.9895 21.58C41.1295 21.1 40.4195 20.34 39.8595 19.3C39.2995 18.26 39.0195 16.9 39.0195 15.22C39.0195 13.36 39.2895 11.87 39.8295 10.75C40.3895 9.63 41.1095 8.82 41.9895 8.32C42.8695 7.8 43.7795 7.54 44.7195 7.54C46.1395 7.54 47.1395 7.66 47.7195 7.9C48.3195 8.14 48.6195 8.26 48.6195 8.26L48.3195 2.59L48.6195 0.789999H54.0495V17.2L54.6495 20.2L54.0495 22.03H48.9195V20.56L48.6195 20.41C48.6195 20.41 48.4695 20.57 48.1695 20.89C47.8695 21.19 47.4295 21.5 46.8495 21.82C46.2695 22.14 45.5595 22.3 44.7195 22.3ZM46.9695 18.07L48.6195 17.65V13.27C48.6195 12.81 48.4695 12.45 48.1695 12.19C47.8695 11.91 47.4695 11.77 46.9695 11.77C46.2295 11.77 45.6695 12.02 45.2895 12.52C44.9095 13 44.7195 13.8 44.7195 14.92C44.7195 16.02 44.9395 16.82 45.3795 17.32C45.8195 17.82 46.3495 18.07 46.9695 18.07ZM64.2777 22.3C61.8377 22.3 59.9477 21.72 58.6077 20.56C57.2677 19.4 56.5977 17.52 56.5977 14.92C56.5977 12.3 57.2677 10.42 58.6077 9.28C59.9477 8.12 61.8377 7.54 64.2777 7.54C66.7777 7.54 68.6677 8.12 69.9477 9.28C71.2477 10.42 71.8977 12.3 71.8977 14.92C71.8977 17.52 71.2477 19.4 69.9477 20.56C68.6677 21.72 66.7777 22.3 64.2777 22.3ZM64.2777 18.4C65.0977 18.4 65.6677 18.1 65.9877 17.5C66.3077 16.88 66.4677 16.02 66.4677 14.92C66.4677 13.8 66.3077 12.94 65.9877 12.34C65.6677 11.74 65.0977 11.44 64.2777 11.44C63.4377 11.44 62.8477 11.74 62.5077 12.34C62.1877 12.94 62.0277 13.8 62.0277 14.92C62.0277 16.02 62.1877 16.88 62.5077 17.5C62.8477 18.1 63.4377 18.4 64.2777 18.4ZM83.7948 22.3C82.8348 22.3 82.0648 22.21 81.4848 22.03C80.9248 21.87 80.5148 21.71 80.2548 21.55C79.9948 21.37 79.8648 21.28 79.8648 21.28V22.03H74.4648V5.59L73.8348 2.59L74.4648 0.789999H79.8648V5.62L79.5648 9.01L79.8648 9.16C80.2648 8.78 80.7548 8.42 81.3348 8.08C81.9348 7.72 82.7548 7.54 83.7948 7.54C85.5748 7.54 86.9648 8.11 87.9648 9.25C88.9848 10.39 89.4948 12.19 89.4948 14.65C89.4948 16.49 89.2348 17.98 88.7148 19.12C88.2148 20.24 87.5348 21.05 86.6748 21.55C85.8148 22.05 84.8548 22.3 83.7948 22.3ZM81.2448 18.19C82.0248 18.19 82.6448 17.92 83.1048 17.38C83.5648 16.82 83.7948 15.99 83.7948 14.89C83.7948 13.81 83.6048 13.03 83.2248 12.55C82.8448 12.05 82.2848 11.8 81.5448 11.8L79.8648 12.43V17.8C79.8648 17.8 79.9648 17.87 80.1648 18.01C80.3848 18.13 80.7448 18.19 81.2448 18.19ZM98.9422 22.3C97.4022 22.3 96.0322 22.07 94.8322 21.61C93.6322 21.15 92.6922 20.38 92.0122 19.3C91.3322 18.22 90.9922 16.76 90.9922 14.92C90.9922 13.6 91.2122 12.47 91.6522 11.53C92.1122 10.59 92.7222 9.83 93.4822 9.25C94.2422 8.65 95.0922 8.22 96.0322 7.96C96.9722 7.68 97.9422 7.54 98.9422 7.54C100.662 7.54 101.982 7.71 102.902 8.05C103.842 8.39 104.462 8.66 104.762 8.86L106.262 13.63L105.662 15.49H96.3622C96.5022 16.23 96.8722 16.85 97.4722 17.35C98.0722 17.85 99.0622 18.1 100.442 18.1C101.522 18.1 102.452 17.98 103.232 17.74C104.012 17.5 104.622 17.29 105.062 17.11V21.13C104.462 21.45 103.592 21.73 102.452 21.97C101.332 22.19 100.162 22.3 98.9422 22.3ZM96.3922 13.57L100.532 12.97L100.262 11.68C100.122 11.6 99.9122 11.54 99.6322 11.5C99.3722 11.46 99.1422 11.44 98.9422 11.44C98.3822 11.44 97.9122 11.56 97.5322 11.8C97.1722 12.04 96.8922 12.33 96.6922 12.67C96.5122 12.99 96.4122 13.29 96.3922 13.57ZM114.778 22L120.208 11.23L115.078 2.56V0.76H121.378L124.978 8.74H125.578L129.148 0.76H135.748L130.258 11.32L135.448 20.2V22H129.268L125.578 14.38H124.978L121.138 22H114.778ZM138.755 22V5.59L138.155 2.59L138.755 0.76H147.695C149.135 0.76 150.515 0.9 151.835 1.18C153.175 1.44 154.365 1.94 155.405 2.68C156.465 3.42 157.295 4.48 157.895 5.86C158.515 7.24 158.825 9.03 158.825 11.23C158.825 13.43 158.515 15.24 157.895 16.66C157.275 18.06 156.435 19.15 155.375 19.93C154.315 20.71 153.115 21.25 151.775 21.55C150.455 21.85 149.095 22 147.695 22H138.755ZM144.215 17.2H147.695C149.455 17.2 150.805 16.74 151.745 15.82C152.685 14.88 153.155 13.35 153.155 11.23C153.155 9.11 152.675 7.64 151.715 6.82C150.775 5.98 149.435 5.56 147.695 5.56H144.215V17.2ZM167.234 25.21L176.384 0.76H180.314L171.134 25.21H167.234ZM181.801 18.7V15.7L191.521 13L181.801 10.3V7.3L194.401 11.2V14.8L181.801 18.7Z" fill="black"/>
</svg>
